<svg width="256" height="48" viewBox="0 0 256 48" fill="none" xmlns="http://www.w3.org/2000/svg">
<path d="M43.5122 23.9989C43.5141 20.2328 42.4192 16.5476 40.3612 13.3935L48.0098 5.74489L42.2649 0L34.6226 7.6486C28.1764 3.44475 19.8558 3.44475 13.4096 7.6486L5.75465 0L0.00976562 5.74489L7.65836 13.3935C3.45452 19.8397 3.45452 28.1603 7.65836 34.6065L0.00976562 42.2551L5.75465 48L13.4033 40.3514C19.8494 44.5552 28.1701 44.5552 34.6163 40.3514L42.2649 48L48.0098 42.2551L40.3612 34.6128C42.4208 31.4563 43.5158 27.768 43.5122 23.9989ZM12.6329 23.9989C12.6239 19.3532 15.4403 15.1686 19.7476 13.4279C24.0549 11.6872 28.9879 12.7401 32.2092 16.0876C35.4306 19.4351 36.2932 24.4049 34.3883 28.6421L26.8833 21.1265L21.1363 26.8735L28.6435 34.3786C25.1262 35.9599 21.0467 35.6478 17.8108 33.55C14.5749 31.4522 12.625 27.8553 12.6329 23.9989Z" fill="#202020"/>
<path fill-rule="evenodd" clip-rule="evenodd" d="M84.8278 24.2299C84.8278 28.9219 82.4492 33.1578 78.2133 35.1129L80.4616 38.0454L75.8347 40.3915L72.7392 36.2859H72.6415C64.9842 36.2859 60.4551 30.7141 60.4551 24.2299C60.4551 17.7457 64.9842 12.1738 72.6415 12.1738C80.2987 12.1738 84.8278 17.7457 84.8278 24.2299ZM72.6415 31.5612C76.9751 31.5612 79.3211 28.2051 79.3211 24.2299C79.3211 20.2546 76.9751 16.8985 72.6415 16.8985C68.2752 16.8985 65.9292 20.2546 65.9618 24.2299C65.9292 28.2051 68.2752 31.5612 72.6415 31.5612ZM93.3648 36.0578C89.5851 36.0578 87.5649 33.7118 87.5649 29.6388V19.9288H92.6154V28.5309C92.6154 30.6815 93.3322 31.8545 95.2221 31.8545C97.34 31.8545 98.2524 30.486 98.2524 28.368V19.9288H103.205V35.6342H98.2524V33.3859C97.3726 35.0477 95.7434 36.0578 93.3648 36.0578ZM113.599 36.0578C108.907 36.0578 106.203 32.5062 106.203 27.7815C106.203 23.0894 109.103 19.5052 113.665 19.5052C115.945 19.5052 117.738 20.5805 118.585 22.1771V19.9288H123.537V35.6342H118.585V33.4185C117.738 34.9825 115.783 36.0578 113.599 36.0578ZM115.033 31.9197C117.509 31.9197 118.78 30.0624 118.78 27.7815C118.78 25.5332 117.509 23.6759 115.033 23.6759C112.72 23.6759 111.286 25.4029 111.286 27.7815C111.286 30.1601 112.72 31.9197 115.033 31.9197ZM127.676 19.9288H132.661V22.2097C133.573 20.4501 135.365 19.5052 137.744 19.5052C141.556 19.5052 143.479 21.6557 143.479 25.9242V35.6342H138.461V27.5534C138.461 24.9141 137.711 23.7085 135.691 23.7085C133.704 23.7085 132.661 25.0119 132.661 27.4231V35.6342H127.676V19.9288ZM155.698 31.7567C156.317 31.7567 156.969 31.7242 157.425 31.659V35.6342C156.708 35.7646 155.535 35.8949 154.101 35.8949C151.755 35.8949 148.529 35.3736 148.529 30.1276V23.8714H146.053V19.9288H148.529V15.2693H153.515V19.9288H157.066V23.8714H153.515V29.0849C153.515 31.3983 154.46 31.7567 155.698 31.7567ZM166.581 36.123C161.986 36.123 159.152 33.8747 159.152 30.9096H164.104C164.104 31.9848 165.147 32.7668 166.679 32.7668C167.754 32.7668 168.503 32.2129 168.503 31.3006C168.503 30.6815 168.21 30.1601 167.363 29.9646L163.518 28.9871C160.911 28.3354 159.575 26.7062 159.575 24.458C159.575 21.5254 162.149 19.4726 166.288 19.4726C170.882 19.4726 173.293 21.3951 173.293 24.3602H168.373C168.373 23.2523 167.558 22.6333 166.222 22.6333C165.147 22.6333 164.43 23.1546 164.43 23.9366C164.43 24.6535 164.919 25.1096 165.766 25.3377L169.481 26.3478C171.892 26.9995 173.456 28.4658 173.456 30.7141C173.456 33.9399 170.882 36.123 166.581 36.123ZM184.795 31.7567C185.414 31.7567 186.066 31.7242 186.522 31.659V35.6342C185.805 35.7646 184.632 35.8949 183.199 35.8949C180.853 35.8949 177.627 35.3736 177.627 30.1276V23.8714H175.15V19.9288H177.627V15.2693H182.612V19.9288H186.164V23.8714H182.612V29.0849C182.612 31.3983 183.557 31.7567 184.795 31.7567ZM195.646 36.0578C190.954 36.0578 188.249 32.5062 188.249 27.7815C188.249 23.0894 191.149 19.5052 195.711 19.5052C197.992 19.5052 199.784 20.5805 200.631 22.1771V19.9288H205.584V35.6342H200.631V33.4185C199.784 34.9825 197.829 36.0578 195.646 36.0578ZM197.079 31.9197C199.556 31.9197 200.826 30.0624 200.826 27.7815C200.826 25.5332 199.556 23.6759 197.079 23.6759C194.766 23.6759 193.332 25.4029 193.332 27.7815C193.332 30.1601 194.766 31.9197 197.079 31.9197ZM209.722 19.9288H214.707V22.2097C215.391 20.6456 217.021 19.5052 219.204 19.5052C222.006 19.5052 223.44 20.7434 224.124 22.4052C224.971 20.7108 226.828 19.5052 229.142 19.5052C233.638 19.5052 234.714 22.6007 234.714 25.8916V35.6342H229.696V26.804C229.696 24.6209 228.881 23.7085 227.35 23.7085C225.786 23.7085 224.71 24.5883 224.71 27.5534V35.6342H219.693V26.7714C219.693 24.5883 218.911 23.7085 217.379 23.7085C215.782 23.7085 214.707 24.5883 214.707 27.5534V35.6342H209.722V19.9288ZM238.656 19.9288H243.642V22.1771C244.456 20.6782 246.411 19.5052 248.757 19.5052C253.058 19.5052 255.991 22.8288 255.991 27.7815C255.991 32.7017 252.961 36.0578 248.627 36.0578C246.314 36.0578 244.424 34.8848 243.642 33.4185V42.151H238.656V19.9288ZM247.193 31.9197C249.376 31.9197 250.908 30.2253 250.908 27.7815C250.908 25.3703 249.376 23.6759 247.193 23.6759C244.945 23.6759 243.414 25.3377 243.414 27.7815C243.414 30.2579 244.978 31.9197 247.193 31.9197Z" fill="#202020"/>
</svg>
