<svg width="226" height="44" viewBox="0 0 226 44" fill="none" xmlns="http://www.w3.org/2000/svg">
<mask id="mask0_1256_6040" style="mask-type:luminance" maskUnits="userSpaceOnUse" x="0" y="0" width="226" height="44">
<path d="M225.645 0H0.353516V44H225.645V0Z" fill="white"/>
</mask>
<g mask="url(#mask0_1256_6040)">
<path d="M61.2782 12.1549C61.2782 11.8212 61.4212 11.4875 61.6596 11.2491C61.8979 11.0108 62.2316 10.8678 62.5653 10.8678H74.197C74.3876 10.8678 74.5783 10.7724 74.7213 10.6771C74.8643 10.5341 74.912 10.3434 74.912 10.1527V9.676C74.912 9.48531 74.8167 9.29463 74.7213 9.15162C74.5783 9.00861 74.3876 8.96094 74.197 8.96094H60.7062C59.7527 8.96094 58.847 9.3423 58.1796 10.0097C57.5122 10.6771 57.1309 11.5828 57.1309 12.5362V19.2578C57.1309 20.2112 57.5122 21.1169 58.1796 21.7843C58.847 22.4517 59.7527 22.8331 60.7062 22.8331H70.0496C70.3833 22.8331 70.717 22.9761 70.9553 23.2621C71.1937 23.5005 71.3367 23.8342 71.3367 24.1679V31.5092C71.3367 31.8428 71.1937 32.1765 70.9553 32.4149C70.717 32.6532 70.3833 32.7963 70.0496 32.7963H58.9423C58.7517 32.7963 58.561 32.8916 58.418 32.9869C58.275 33.1299 58.2273 33.3206 58.2273 33.5113V33.988C58.2273 34.1787 58.3226 34.3694 58.418 34.5124C58.561 34.6554 58.7517 34.7031 58.9423 34.7031H71.8611C72.3378 34.7031 72.7668 34.6077 73.2435 34.4171C73.6726 34.2264 74.0539 33.988 74.3876 33.6543C74.7213 33.3206 74.9597 32.9393 75.1504 32.5102C75.341 32.0812 75.4364 31.6045 75.4364 31.1278V24.4539C75.4364 23.5005 75.055 22.5947 74.3876 21.9274C73.7202 21.26 72.8145 20.8786 71.8611 20.8786H62.5176C62.1839 20.8786 61.8503 20.7356 61.6119 20.4972C61.3736 20.2589 61.2305 19.9252 61.2305 19.5915V12.1549H61.2782Z" fill="#202020"/>
<path d="M190.652 12.1549C190.652 11.8212 190.795 11.4875 191.033 11.2491C191.272 11.0108 191.605 10.8678 191.939 10.8678H203.571C203.761 10.8678 203.952 10.7724 204.095 10.6771C204.238 10.5341 204.286 10.3434 204.286 10.1527V9.676C204.286 9.48531 204.191 9.29463 204.095 9.15162C203.952 9.00861 203.761 8.96094 203.571 8.96094H190.032C189.079 8.96094 188.173 9.3423 187.506 10.0097C186.838 10.6771 186.457 11.5828 186.457 12.5362V19.2578C186.457 20.2112 186.838 21.1169 187.506 21.7843C188.173 22.4517 189.079 22.8331 190.032 22.8331H199.376C199.709 22.8331 200.043 22.9761 200.282 23.2621C200.52 23.5005 200.663 23.8342 200.663 24.1679V31.5092C200.663 31.8428 200.52 32.1765 200.282 32.4149C200.043 32.6532 199.709 32.7963 199.376 32.7963H188.269C188.078 32.7963 187.887 32.8916 187.744 32.9869C187.601 33.1299 187.553 33.3206 187.553 33.5113V33.988C187.553 34.1787 187.649 34.3694 187.744 34.5124C187.887 34.6554 188.078 34.7031 188.269 34.7031H201.235C201.712 34.7031 202.141 34.6077 202.617 34.4171C203.046 34.2264 203.428 33.988 203.761 33.6543C204.095 33.3206 204.334 32.9393 204.524 32.5102C204.715 32.0812 204.81 31.6045 204.81 31.1278V24.4539C204.81 23.5005 204.429 22.5947 203.761 21.9274C203.094 21.26 202.188 20.8786 201.235 20.8786H191.891C191.558 20.8786 191.224 20.7356 190.986 20.4972C190.747 20.2589 190.604 19.9252 190.604 19.5915V12.1549H190.652Z" fill="#202020"/>
<path d="M91.8335 32.7017H86.0176C85.6839 32.7017 85.3502 32.5587 85.1119 32.2727C84.8735 32.0343 84.7305 31.7006 84.7305 31.3669V9.62912C84.7305 9.43844 84.6352 9.24776 84.5399 9.10475C84.3968 8.96174 84.2062 8.91406 84.0155 8.91406H81.3459C81.1552 8.91406 80.9646 9.00941 80.8215 9.10475C80.6785 9.24776 80.6309 9.43844 80.6309 9.62912V31.0332C80.6309 31.9867 81.0122 32.8924 81.6796 33.5598C82.347 34.2272 83.2527 34.6085 84.2062 34.6085H91.8335C92.0241 34.6085 92.2148 34.5132 92.3578 34.4179C92.5009 34.2748 92.5485 34.0842 92.5485 33.8935V33.4168C92.5485 33.3214 92.5485 33.2261 92.5008 33.1307C92.4532 33.0354 92.4055 32.9401 92.3578 32.8924C92.3102 32.8447 92.2148 32.7494 92.1195 32.7494C92.0241 32.7494 91.9288 32.7017 91.8335 32.7017Z" fill="#202020"/>
<path d="M134.548 32.7017H136.55C136.884 32.7017 137.218 32.5587 137.456 32.2727C137.695 32.0343 137.838 31.7006 137.838 31.3669V9.62912C137.838 9.43844 137.933 9.24776 138.028 9.10475C138.171 8.96174 138.362 8.91406 138.553 8.91406H141.27C141.46 8.91406 141.651 9.00941 141.794 9.10475C141.937 9.24776 141.985 9.43844 141.985 9.62912V31.0332C141.985 31.9867 141.603 32.8924 140.936 33.5598C140.269 34.2272 139.363 34.6085 138.41 34.6085H134.596C134.405 34.6085 134.215 34.5132 134.072 34.4179C133.929 34.2748 133.881 34.0842 133.881 33.8935V33.4168C133.881 33.3214 133.881 33.2261 133.929 33.1307C133.976 33.0354 134.024 32.9401 134.072 32.8924C134.119 32.8447 134.215 32.7494 134.31 32.7494C134.358 32.7494 134.453 32.7017 134.548 32.7017Z" fill="#202020"/>
<path d="M126.062 32.7017H124.059C123.726 32.7017 123.392 32.5587 123.154 32.2727C122.915 32.0343 122.772 31.7006 122.772 31.3669V9.62912C122.772 9.43844 122.677 9.24776 122.582 9.10475C122.439 8.96174 122.248 8.91406 122.057 8.91406H119.34C119.149 8.91406 118.959 9.00941 118.816 9.10475C118.673 9.24776 118.625 9.43844 118.625 9.62912V31.0332C118.625 31.9867 119.006 32.8924 119.674 33.5598C120.341 34.2272 121.247 34.6085 122.2 34.6085H126.014C126.205 34.6085 126.395 34.5132 126.538 34.4179C126.681 34.2748 126.729 34.0842 126.729 33.8935V33.4168C126.729 33.3214 126.729 33.2261 126.681 33.1307C126.634 33.0354 126.586 32.9401 126.538 32.8924C126.491 32.8447 126.395 32.7494 126.3 32.7494C126.252 32.7494 126.157 32.7017 126.062 32.7017Z" fill="#202020"/>
<path d="M106.804 32.7017H101.179C100.845 32.7017 100.511 32.5587 100.273 32.2727C100.034 32.0343 99.8915 31.7006 99.8915 31.3669V9.62912C99.8915 9.43844 99.7961 9.24776 99.7008 9.10475C99.6055 8.96174 99.3671 8.91406 99.1764 8.91406H96.4592C96.2685 8.91406 96.0778 9.00941 95.9348 9.10475C95.7918 9.20009 95.7441 9.43844 95.7441 9.62912V31.0332C95.7441 31.9867 96.1255 32.8924 96.7929 33.5598C97.4603 34.2272 98.366 34.6085 99.3194 34.6085H106.756C106.947 34.6085 107.137 34.5132 107.28 34.4179C107.423 34.2748 107.471 34.0842 107.471 33.8935V33.4168C107.471 33.3214 107.471 33.2261 107.423 33.1307C107.376 33.0354 107.328 32.9401 107.28 32.8924C107.233 32.8447 107.137 32.7494 107.042 32.7494C106.994 32.7494 106.899 32.7017 106.804 32.7017Z" fill="#202020"/>
<path d="M180.215 8.96094H177.498C177.308 8.96094 177.117 9.05628 176.974 9.15162C176.831 9.29463 176.783 9.48531 176.783 9.676V33.8927C176.783 34.0834 176.879 34.274 176.974 34.4171C177.117 34.5601 177.308 34.6077 177.498 34.6077H180.215C180.406 34.6077 180.597 34.5124 180.74 34.4171C180.883 34.274 180.931 34.0834 180.931 33.8927V9.676C180.931 9.58066 180.931 9.48531 180.883 9.38997C180.835 9.29463 180.788 9.19929 180.74 9.15162C180.692 9.10395 180.597 9.00861 180.502 9.00861C180.406 8.96094 180.311 8.96094 180.215 8.96094Z" fill="#202020"/>
<path d="M131.688 8.96094H128.971C128.78 8.96094 128.59 9.05628 128.447 9.15162C128.304 9.29463 128.256 9.48531 128.256 9.676V33.8927C128.256 34.0834 128.351 34.274 128.447 34.4171C128.59 34.5601 128.78 34.6077 128.971 34.6077H131.688C131.879 34.6077 132.07 34.5124 132.213 34.4171C132.356 34.274 132.403 34.0834 132.403 33.8927V9.676C132.403 9.58066 132.403 9.48531 132.356 9.38997C132.308 9.29463 132.26 9.19929 132.213 9.15162C132.165 9.10395 132.07 9.00861 131.974 9.00861C131.879 9.00861 131.783 8.96094 131.688 8.96094Z" fill="#202020"/>
<path d="M155.093 10.8209H153.091C152.757 10.8209 152.423 10.9639 152.185 11.2023C151.947 11.4406 151.804 11.7743 151.804 12.108V33.8935C151.804 34.0842 151.708 34.2748 151.613 34.4179C151.47 34.5609 151.279 34.6085 151.089 34.6085H148.371C148.181 34.6085 147.99 34.5132 147.847 34.4179C147.704 34.2748 147.656 34.0842 147.656 33.8935V12.4894C147.656 11.5359 148.038 10.6302 148.705 9.96282C149.372 9.29543 150.278 8.91406 151.232 8.91406H155.045C155.236 8.91406 155.427 9.00941 155.57 9.10475C155.713 9.24776 155.76 9.43844 155.76 9.62912V10.1058C155.76 10.2965 155.713 10.4872 155.57 10.6302C155.474 10.7732 155.284 10.8209 155.093 10.8209Z" fill="#202020"/>
<path d="M163.576 10.8209H165.579C165.912 10.8209 166.246 10.9639 166.484 11.2023C166.723 11.4406 166.866 11.7743 166.866 12.108V33.8935C166.866 34.0842 166.961 34.2748 167.056 34.4179C167.199 34.5609 167.39 34.6085 167.581 34.6085H170.25C170.441 34.6085 170.632 34.5132 170.775 34.4179C170.918 34.2748 170.965 34.0842 170.965 33.8935V12.4894C170.965 11.5359 170.584 10.6302 169.917 9.96282C169.249 9.29543 168.343 8.91406 167.39 8.91406H163.576C163.386 8.91406 163.195 9.00941 163.052 9.10475C162.909 9.24776 162.861 9.43844 162.861 9.62912V10.1058C162.861 10.2012 162.861 10.2965 162.909 10.3919C162.957 10.4872 163.004 10.5825 163.052 10.6302C163.1 10.6779 163.195 10.7732 163.29 10.7732C163.386 10.8209 163.481 10.8209 163.576 10.8209Z" fill="#202020"/>
<path d="M101.941 10.8209H107.566C107.9 10.8209 108.233 10.9639 108.472 11.2023C108.71 11.4406 108.853 11.7743 108.853 12.108V33.8935C108.853 34.0842 108.948 34.2748 109.044 34.4179C109.187 34.5609 109.377 34.6085 109.568 34.6085H112.285C112.476 34.6085 112.667 34.5132 112.81 34.4179C112.953 34.2748 113 34.0842 113 33.8935V12.4894C113 11.5359 112.619 10.6302 111.952 9.96282C111.284 9.29543 110.379 8.91406 109.425 8.91406H101.988C101.798 8.91406 101.607 9.00941 101.464 9.10475C101.321 9.24776 101.273 9.43844 101.273 9.62912V10.1058C101.273 10.2965 101.321 10.4872 101.464 10.5825C101.559 10.7732 101.75 10.8209 101.941 10.8209Z" fill="#202020"/>
<path d="M208.77 10.8209H213.012C213.346 10.8209 213.68 10.9639 213.918 11.2023C214.157 11.4406 214.3 11.7743 214.3 12.108V33.8935C214.3 34.0842 214.395 34.2748 214.49 34.4179C214.633 34.5609 214.824 34.6085 215.015 34.6085H217.732C217.923 34.6085 218.113 34.5132 218.256 34.4179C218.399 34.2748 218.447 34.0842 218.447 33.8935V12.4894C218.447 11.5359 218.066 10.6302 217.398 9.96282C216.731 9.29543 215.825 8.91406 214.872 8.91406H208.77C208.579 8.91406 208.388 9.00941 208.245 9.10475C208.102 9.24776 208.055 9.43844 208.055 9.62912V10.1058C208.055 10.2965 208.102 10.4872 208.245 10.5825C208.436 10.7255 208.579 10.8209 208.77 10.8209Z" fill="#202020"/>
<path d="M157.951 34.6566H160.669C160.859 34.6566 161.05 34.5612 161.193 34.4659C161.336 34.3229 161.384 34.1322 161.384 33.9415V9.72483C161.384 9.53414 161.288 9.34346 161.193 9.20045C161.05 9.05743 160.859 9.00977 160.669 9.00977H157.951C157.761 9.00977 157.57 9.1051 157.427 9.20045C157.284 9.34346 157.236 9.53414 157.236 9.72483V33.9415C157.236 34.0368 157.236 34.1322 157.284 34.2275C157.332 34.3229 157.379 34.3705 157.427 34.4659C157.475 34.5136 157.57 34.6089 157.665 34.6089C157.808 34.6089 157.904 34.6566 157.951 34.6566Z" fill="#202020"/>
<path d="M224.93 8.91406H222.213C222.022 8.91406 221.832 9.00941 221.689 9.10475C221.546 9.24776 221.498 9.43844 221.498 9.62912V12.108C221.498 12.2987 221.593 12.4894 221.689 12.6324C221.832 12.7754 222.022 12.8231 222.213 12.8231H224.978C225.169 12.8231 225.359 12.7277 225.502 12.6324C225.645 12.4894 225.693 12.2987 225.693 12.108V9.62912C225.693 9.53378 225.693 9.43844 225.645 9.3431C225.598 9.24776 225.55 9.15242 225.455 9.10475C225.407 9.05708 225.312 9.00941 225.216 8.96174C225.121 8.91407 225.026 8.91406 224.93 8.91406Z" fill="#202020"/>
<path d="M28.4788 33.9407C26.1429 36.7056 23.378 39.0415 20.2794 40.8529C20.2794 40.8529 3.16568 31.9385 3.16568 9.15196C12.4138 8.72293 18.9447 4.57558 20.2794 3.24081C21.0898 4.05121 23.7117 5.81502 27.7161 7.24514V4.62325C24.9512 3.66984 22.4246 2.09671 20.3271 0.046875C18.9923 1.38165 13.8439 6.3394 0.496125 7.00678C-0.838653 33.893 20.3271 44.0469 20.3271 44.0469C24.9035 41.568 28.9078 38.1357 32.0541 33.9884H28.4788V33.9407Z" fill="#202020"/>
<path d="M33.5819 19.3535H27.3848V24.9787H33.5819V19.3535Z" fill="#202020"/>
<path d="M26.956 25.5508H25.1445V27.1239H26.956V25.5508Z" fill="#202020"/>
<path d="M31.0082 28.3164H28.291V30.7953H31.0082V28.3164Z" fill="#202020"/>
<path d="M37.6829 28.6973H33.6309V32.2726H37.6829V28.6973Z" fill="#202020"/>
<path d="M48.0714 16.875H43.209V21.2607H48.0714V16.875Z" fill="#202020"/>
<path d="M47.6409 8.58008H45.4004V10.5822H47.6409V8.58008Z" fill="#202020"/>
<path d="M43.2581 9.81836H41.0176V11.8205H43.2581V9.81836Z" fill="#202020"/>
<path d="M43.2567 21.6895H40.3965V24.3113H43.2567V21.6895Z" fill="#202020"/>
<path d="M41.2091 26.3613H38.1582V29.0786H41.2091V26.3613Z" fill="#202020"/>
<path d="M38.6815 5.24219H35.2969V8.24544H38.6815V5.24219Z" fill="#202020"/>
<path d="M32.1986 2.57422H29.1953V5.24377H32.1986V2.57422Z" fill="#202020"/>
<path d="M28.8613 7.81641H25V11.2487H28.8613V7.81641Z" fill="#202020"/>
<path d="M25.286 9.58008H25V13.0124H25.286V9.58008Z" fill="#202020"/>
<path d="M31.0544 5.09961H30.7207V8.5319H31.0544V5.09961Z" fill="#202020"/>
<path d="M37.6317 7.81641H37.3457V15.396H37.6317V7.81641Z" fill="#202020"/>
<path d="M46.3095 10.1523H46.0234V17.732H46.3095V10.1523Z" fill="#202020"/>
<path d="M46.164 10.2969H42.541V10.6306H46.164V10.2969Z" fill="#202020"/>
<path d="M43.4011 17.875H39.7305V18.161H43.4011V17.875Z" fill="#202020"/>
<path d="M40.9206 21.9277H37.25V22.2138H40.9206V21.9277Z" fill="#202020"/>
<path d="M36.2976 23.0234H32.627V23.3095H36.2976V23.0234Z" fill="#202020"/>
<path d="M39.539 28.6973H35.916V29.031H39.539V28.6973Z" fill="#202020"/>
<path d="M42.827 22.3568L42.541 22.1661L43.5421 20.6406L43.7804 20.8313L42.827 22.3568Z" fill="#202020"/>
<path d="M26.67 26.1231L26.4316 25.8848L27.7187 24.5977L27.9571 24.836L26.67 26.1231Z" fill="#202020"/>
<path d="M35.8241 15.9219H32.2012V16.2079H35.8241V15.9219Z" fill="#202020"/>
<path d="M29.862 12.7754H26.1914V13.0614H29.862V12.7754Z" fill="#202020"/>
<path d="M32.3376 9.86719H32.0039V17.4468H32.3376V9.86719Z" fill="#202020"/>
<path d="M31.0056 22.6426H30.6719V30.2222H31.0056V22.6426Z" fill="#202020"/>
<path d="M41.2087 21.8809H40.875V27.6013H41.2087V21.8809Z" fill="#202020"/>
<path d="M35.3935 8.24609H29.7207V13.3945H35.3935V8.24609Z" fill="#202020"/>
<path d="M32.8176 17.0645H31.3398V18.3992H32.8176V17.0645Z" fill="#202020"/>
<path d="M39.8704 14.5859H35.5801V18.3519H39.8704V14.5859Z" fill="#202020"/>
<path d="M26.5232 12.7754H22.0898V16.8274H26.5232V12.7754Z" fill="#202020"/>
<path d="M38.0144 21.1641H35.6309V23.3569H38.0144V21.1641Z" fill="#202020"/>
<g opacity="0.8">
<path opacity="0.8" d="M20.2818 40.8524V3.24023C18.9471 4.57501 12.3685 8.72235 3.16807 9.15139C3.1204 31.938 20.2818 40.8524 20.2818 40.8524Z" fill="#202020"/>
</g>
</g>
</svg>
