<svg width="212" height="52" viewBox="0 0 212 52" fill="none" xmlns="http://www.w3.org/2000/svg">
<path fill-rule="evenodd" clip-rule="evenodd" d="M43.889 8.025L44.1559 9.69327C44.3561 11.2281 44.4562 12.7629 44.4228 14.3311C44.4228 17.7677 44.0225 21.171 43.2217 24.5075C42.154 29.0118 40.2855 33.316 37.7164 37.1863C34.7469 41.5906 30.4427 45.8947 24.2034 49.4314L23.436 49.8652L22.6686 49.4314C16.4293 45.9614 12.1251 41.6239 9.15563 37.1863C6.55313 33.316 4.71803 29.0452 3.65034 24.5075C2.84957 21.171 2.44919 17.7677 2.44919 14.3311C2.44919 12.7963 2.51592 11.2281 2.71611 9.69327L2.94967 8.025C2.98303 7.89154 2.98303 7.75808 2.94967 7.62462C2.9163 7.49116 2.88294 7.35769 2.78284 7.2576C2.71611 7.1575 2.61601 7.05741 2.51592 6.99068C2.41582 6.92395 2.28236 6.89058 2.18226 6.85721C2.0488 6.82385 1.91534 6.82385 1.78188 6.85721C1.64842 6.89058 1.51496 6.95731 1.41486 7.02404C1.31477 7.09077 1.21467 7.19087 1.14794 7.29097C1.08121 7.42443 1.04784 7.55789 1.01448 7.69135L0.747555 9.35962C0.547362 10.9945 0.447266 12.6628 0.447266 14.3311C0.447266 17.9345 0.881017 21.5046 1.71515 25.008C2.28236 27.3769 3.04976 29.7125 4.01736 31.948C4.98496 34.1835 6.15275 36.3188 7.52073 38.3541C10.6571 43.0253 15.1948 47.5964 21.7344 51.1998L22.9689 51.9005C23.1357 51.9672 23.3026 52.0006 23.4694 52.0006C23.6362 52.0006 23.803 51.9672 23.9699 51.9005L25.2044 51.1998C31.7106 47.563 36.2817 42.9919 39.418 38.3541C42.154 34.2836 44.1226 29.7459 45.2236 25.008C46.0577 21.5046 46.4581 17.9345 46.4581 14.3311C46.4581 12.6628 46.358 10.9945 46.1578 9.32626L45.8909 7.65799C45.8576 7.52453 45.8242 7.39106 45.7575 7.2576C45.6907 7.1575 45.5906 7.05741 45.4905 6.99068C45.3904 6.92395 45.257 6.85722 45.1235 6.82385C44.9901 6.79049 44.8566 6.79049 44.7231 6.82385C44.5897 6.85722 44.4562 6.89058 44.3227 6.95731C44.2226 7.02404 44.1226 7.12414 44.0558 7.22424C43.9891 7.32433 43.9224 7.45779 43.889 7.59125V8.025Z" fill="#202020"/>
<path fill-rule="evenodd" clip-rule="evenodd" d="M8.55304 6.88995L23.5007 2.18543L38.7487 6.99005C38.8822 7.02341 39.0156 7.02341 39.1491 7.02341C39.2826 7.02341 39.416 6.99004 39.5495 6.92331C39.6829 6.85658 39.783 6.78986 39.8831 6.65639C39.9832 6.5563 40.05 6.42283 40.05 6.28937C40.0833 6.15591 40.0833 6.02245 40.0833 5.88899C40.0833 5.75553 40.05 5.62207 39.9832 5.48861C39.9165 5.35514 39.8498 5.25505 39.7497 5.15495C39.6496 5.05486 39.5161 4.98813 39.3827 4.98813L23.801 0.0500481C23.6008 -0.0166827 23.4006 -0.0166827 23.2004 0.0500481L7.98583 4.85466C7.85237 4.88803 7.75227 4.95476 7.61881 5.02149C7.51871 5.12158 7.41862 5.22168 7.38525 5.35514C7.31852 5.4886 7.28516 5.62206 7.28516 5.75553C7.28516 5.88899 7.28516 6.02245 7.31852 6.15591C7.35189 6.28938 7.41862 6.42283 7.48535 6.52293C7.55208 6.62303 7.68554 6.72312 7.819 6.78985C7.9191 6.85658 8.05256 6.88995 8.21939 6.88995C8.28612 6.92332 8.41958 6.92332 8.55304 6.88995Z" fill="#202020"/>
<path fill-rule="evenodd" clip-rule="evenodd" d="M1.18048 8.32447L22.5677 51.4325C22.6344 51.5994 22.7679 51.7328 22.9014 51.8329C23.235 52.0331 23.6354 52.0331 23.969 51.8329C24.1359 51.7328 24.2693 51.5994 24.3694 51.4325L37.4153 26.2417L37.4487 26.2083L45.79 8.2911C45.8567 8.15764 45.8901 8.02418 45.8901 7.89072C45.8901 7.75725 45.8901 7.62379 45.8234 7.49033C45.79 7.35687 45.7233 7.22341 45.6232 7.12331C45.5564 7.02322 45.423 6.92312 45.3229 6.85639C45.2228 6.78966 45.0893 6.75629 44.9225 6.75629C44.789 6.75629 44.6556 6.75629 44.5221 6.78966C44.3887 6.82302 44.2552 6.88976 44.1551 6.98985C44.055 7.08995 43.9549 7.19004 43.9215 7.32351L35.5802 25.2407L23.4352 48.6966L2.94885 7.32351C2.88212 7.22341 2.78202 7.08995 2.71529 6.98985C2.6152 6.88976 2.48173 6.82302 2.34827 6.78966C2.21481 6.72293 2.08135 6.72293 1.94789 6.75629C1.81443 6.75629 1.68097 6.78966 1.5475 6.85639C1.44741 6.92312 1.31395 7.02322 1.24722 7.12331C1.18048 7.22341 1.11375 7.35687 1.08039 7.49033C1.04702 7.62379 1.01366 7.75725 1.04702 7.89072C1.08039 8.05754 1.11375 8.19101 1.18048 8.32447Z" fill="#202020"/>
<path fill-rule="evenodd" clip-rule="evenodd" d="M11.4252 27.5425H35.248C35.3815 27.5425 35.515 27.5091 35.6484 27.4757C35.7819 27.4424 35.882 27.3423 35.9487 27.2422C36.0488 27.1421 36.1155 27.042 36.1489 26.9085C36.249 26.6416 36.249 26.3747 36.1489 26.1078C36.1155 25.9743 36.0154 25.8742 35.9487 25.7741C35.8486 25.674 35.7485 25.6073 35.6484 25.5406C35.515 25.5072 35.3815 25.4738 35.248 25.4738H11.4252C11.2917 25.4738 11.1582 25.5072 11.0248 25.5406C10.8913 25.5739 10.7912 25.674 10.7245 25.7741C10.6244 25.8742 10.5577 25.9743 10.5243 26.1078C10.4242 26.3747 10.4242 26.6416 10.5243 26.9085C10.5577 27.042 10.6244 27.1421 10.7245 27.2422C10.8246 27.3423 10.9247 27.409 11.0248 27.4757C11.1582 27.5091 11.2917 27.5091 11.4252 27.5425ZM77.8223 18.5672H62.3407C62.2073 18.5672 62.0738 18.6006 61.9403 18.6339C61.8069 18.6673 61.7068 18.7674 61.6401 18.8675C61.54 18.9676 61.4732 19.0677 61.4399 19.2011C61.4065 19.3346 61.3731 19.4681 61.3731 19.6015V32.4472C61.3731 32.5806 61.4065 32.7141 61.4399 32.8476C61.4732 32.981 61.54 33.0811 61.6401 33.1812C61.7402 33.2813 61.8403 33.3481 61.9403 33.4148C62.0738 33.4481 62.2073 33.4815 62.3407 33.4815H77.8223V35.6503H62.3407C62.1405 35.6503 61.9404 35.6169 61.7402 35.5835C61.54 35.5502 61.3398 35.4834 61.1396 35.4167C60.9394 35.35 60.7726 35.2499 60.6057 35.1498C60.4389 35.0163 60.3054 34.8829 60.1386 34.7494C59.8383 34.4491 59.6381 34.1155 59.4713 33.7484C59.4046 33.5482 59.3378 33.3481 59.3045 33.1479C59.2711 32.9477 59.2378 32.7475 59.2378 32.5473V19.6349C59.2378 19.4347 59.2711 19.2345 59.3045 19.0343C59.3378 18.8341 59.4046 18.6339 59.4713 18.4337C59.538 18.2335 59.6381 18.0333 59.7382 17.8665C59.8383 17.6997 59.9718 17.5329 60.1386 17.3994C60.2721 17.2659 60.4389 17.1325 60.6057 16.999C60.7726 16.8989 60.9394 16.7988 61.1396 16.7321C61.3398 16.6654 61.54 16.5986 61.7402 16.5653C61.9404 16.5319 62.1405 16.4985 62.3407 16.4985H77.8223V18.5672ZM106.884 16.3984V18.5672H91.9692V24.94H103.947V27.1421H91.9692V33.5149H106.884V35.6836H89.9005V16.3984H106.884Z" fill="#202020"/>
<path d="M137.614 19.6681V25.3068C137.614 25.507 137.581 25.7072 137.547 25.9074C137.514 26.1076 137.447 26.3078 137.38 26.508C137.314 26.7082 137.214 26.9084 137.114 27.0752C136.98 27.242 136.88 27.4089 136.713 27.5423C136.58 27.6758 136.413 27.8092 136.246 27.9427C136.079 28.0428 135.912 28.1429 135.712 28.2096C135.512 28.2764 135.312 28.3431 135.112 28.4098C134.911 28.4432 134.711 28.4765 134.511 28.4765H131.675L137.514 35.6501H134.711L128.906 28.4765H122.099C121.765 28.4765 121.432 28.4432 121.098 28.3765V35.6501H118.996V16.4316H134.544C134.745 16.4316 134.945 16.465 135.145 16.4984C135.345 16.5317 135.545 16.5985 135.746 16.6652C135.946 16.7319 136.113 16.832 136.279 16.9655C136.613 17.199 136.88 17.4993 137.114 17.833C137.214 17.9998 137.314 18.2 137.38 18.4002C137.447 18.6004 137.514 18.8006 137.547 19.0008C137.581 19.2343 137.614 19.4679 137.614 19.6681ZM122.066 26.3412H134.511C134.644 26.3412 134.778 26.3078 134.911 26.2744C135.045 26.2411 135.145 26.1743 135.212 26.0409C135.312 25.9408 135.378 25.8407 135.412 25.7072C135.445 25.5738 135.479 25.4403 135.479 25.3068V19.6681C135.479 19.4012 135.378 19.1342 135.212 18.934C135.045 18.7339 134.778 18.6004 134.511 18.6004H122.066C121.932 18.6004 121.799 18.6338 121.665 18.6671C121.532 18.7005 121.432 18.8006 121.365 18.9007C121.265 19.0008 121.198 19.1009 121.165 19.2343C121.131 19.3678 121.098 19.5013 121.098 19.6347V25.2735C121.098 25.5404 121.198 25.8073 121.432 26.0075C121.565 26.2077 121.832 26.3412 122.066 26.3412Z" fill="#202020"/>
<path fill-rule="evenodd" clip-rule="evenodd" d="M148.758 16.3984H167.376V18.5672H159.134V35.6503H157.032V18.5672H148.758V16.3984ZM178.72 35.6836V16.4318H180.822V35.6836H178.72ZM208.815 16.3984H211.518L203.744 26.041L211.551 35.6836H208.815L201.875 27.1421H195.87V35.6836H193.768V16.4318H195.903V24.9733H201.909L208.815 16.3984Z" fill="#202020"/>
</svg>
