<svg width="370" height="420" viewBox="0 0 370 420" fill="none" xmlns="http://www.w3.org/2000/svg">
<g clip-path="url(#clip0_1757_6530)">
<rect width="370" height="420" rx="24" fill="#F7F4FD"/>
<g opacity="0.7">
<mask id="path-2-outside-1_1757_6530" maskUnits="userSpaceOnUse" x="165.672" y="50" width="292" height="320" fill="black">
<rect fill="white" x="165.672" y="50" width="292" height="320"/>
<path fill-rule="evenodd" clip-rule="evenodd" d="M299.547 100.45C299.547 93.574 305.121 88 311.997 88C318.872 88 324.446 93.574 324.446 100.45V188.436L400.649 144.44C406.603 141.002 414.217 143.043 417.655 148.997C421.093 154.952 419.053 162.566 413.098 166.004L336.92 209.986L413.095 253.965C419.05 257.403 421.09 265.017 417.652 270.972C414.214 276.927 406.6 278.967 400.645 275.529L324.446 231.536V319.55C324.446 326.426 318.872 332 311.997 332C305.121 332 299.547 326.426 299.547 319.55V231.563L223.352 275.554C217.397 278.992 209.783 276.952 206.345 270.997C202.907 265.043 204.947 257.429 210.902 253.991L287.121 209.986L210.899 165.979C204.944 162.541 202.904 154.927 206.342 148.972C209.78 143.017 217.394 140.977 223.349 144.415L299.547 188.408V100.45Z"/>
</mask>
<path fill-rule="evenodd" clip-rule="evenodd" d="M299.547 100.45C299.547 93.574 305.121 88 311.997 88C318.872 88 324.446 93.574 324.446 100.45V188.436L400.649 144.44C406.603 141.002 414.217 143.043 417.655 148.997C421.093 154.952 419.053 162.566 413.098 166.004L336.92 209.986L413.095 253.965C419.05 257.403 421.09 265.017 417.652 270.972C414.214 276.927 406.6 278.967 400.645 275.529L324.446 231.536V319.55C324.446 326.426 318.872 332 311.997 332C305.121 332 299.547 326.426 299.547 319.55V231.563L223.352 275.554C217.397 278.992 209.783 276.952 206.345 270.997C202.907 265.043 204.947 257.429 210.902 253.991L287.121 209.986L210.899 165.979C204.944 162.541 202.904 154.927 206.342 148.972C209.78 143.017 217.394 140.977 223.349 144.415L299.547 188.408V100.45Z" fill="#8F4AFF" fill-opacity="0.04"/>
<path d="M324.446 188.436H286.446V254.254L343.446 221.345L324.446 188.436ZM400.649 144.44L381.649 111.531V111.531L400.649 144.44ZM417.655 148.997L450.564 129.997L450.564 129.997L417.655 148.997ZM413.098 166.004L432.098 198.913L432.098 198.913L413.098 166.004ZM336.92 209.986L317.92 177.077L260.92 209.986L317.92 242.895L336.92 209.986ZM413.095 253.965L432.095 221.056L432.095 221.056L413.095 253.965ZM417.652 270.972L450.561 289.972L450.561 289.972L417.652 270.972ZM400.645 275.529L381.645 308.438L400.645 275.529ZM324.446 231.536L343.446 198.627L286.446 165.718V231.536H324.446ZM299.547 231.563H337.547V165.745L280.547 198.654L299.547 231.563ZM223.352 275.554L242.352 308.463L242.352 308.463L223.352 275.554ZM206.345 270.997L173.436 289.997L173.436 289.997L206.345 270.997ZM210.902 253.991L191.902 221.082L191.902 221.082L210.902 253.991ZM287.121 209.986L306.121 242.895L363.121 209.986L306.121 177.077L287.121 209.986ZM210.899 165.979L191.899 198.888H191.899L210.899 165.979ZM206.342 148.972L173.433 129.972L173.433 129.972L206.342 148.972ZM223.349 144.415L204.349 177.324H204.349L223.349 144.415ZM299.547 188.408L280.547 221.317L337.547 254.226V188.408H299.547ZM311.997 50C284.134 50 261.547 72.5872 261.547 100.45H337.547C337.547 114.561 326.107 126 311.997 126V50ZM362.446 100.45C362.446 72.5871 339.859 50 311.997 50V126C297.886 126 286.446 114.561 286.446 100.45H362.446ZM362.446 188.436V100.45H286.446V188.436H362.446ZM343.446 221.345L419.649 177.349L381.649 111.531L305.446 155.527L343.446 221.345ZM419.649 177.349C407.428 184.405 391.802 180.218 384.746 167.997L450.564 129.997C436.633 105.868 405.778 97.6001 381.649 111.531L419.649 177.349ZM384.746 167.997C377.691 155.777 381.878 140.151 394.098 133.095L432.098 198.913C456.228 184.982 464.496 154.127 450.564 129.997L384.746 167.997ZM394.098 133.095L317.92 177.077L355.92 242.895L432.098 198.913L394.098 133.095ZM432.095 221.056L355.92 177.077L317.92 242.895L394.095 286.874L432.095 221.056ZM450.561 289.972C464.492 265.842 456.225 234.988 432.095 221.056L394.095 286.874C381.875 279.819 377.688 264.192 384.743 251.972L450.561 289.972ZM381.645 308.438C405.775 322.369 436.63 314.102 450.561 289.972L384.743 251.972C391.799 239.752 407.425 235.565 419.645 242.62L381.645 308.438ZM305.446 264.444L381.645 308.438L419.645 242.62L343.446 198.627L305.446 264.444ZM362.446 319.55V231.536H286.446V319.55H362.446ZM311.997 370C339.859 370 362.446 347.413 362.446 319.55H286.446C286.446 305.439 297.886 294 311.997 294V370ZM261.547 319.55C261.547 347.413 284.134 370 311.997 370V294C326.107 294 337.547 305.439 337.547 319.55H261.547ZM261.547 231.563V319.55H337.547V231.563H261.547ZM280.547 198.654L204.352 242.645L242.352 308.463L318.547 264.472L280.547 198.654ZM204.352 242.645C216.572 235.59 232.199 239.777 239.254 251.997L173.436 289.997C187.368 314.127 218.222 322.395 242.352 308.463L204.352 242.645ZM239.254 251.997C246.31 264.218 242.123 279.844 229.902 286.9L191.902 221.082C167.772 235.013 159.505 265.868 173.436 289.997L239.254 251.997ZM229.902 286.9L306.121 242.895L268.121 177.077L191.902 221.082L229.902 286.9ZM191.899 198.888L268.121 242.895L306.121 177.077L229.899 133.07L191.899 198.888ZM173.433 129.972C159.502 154.102 167.769 184.956 191.899 198.888L229.899 133.07C242.119 140.125 246.306 155.752 239.251 167.972L173.433 129.972ZM242.349 111.506C218.219 97.5747 187.364 105.842 173.433 129.972L239.251 167.972C232.195 180.192 216.569 184.379 204.349 177.324L242.349 111.506ZM318.547 155.499L242.349 111.506L204.349 177.324L280.547 221.317L318.547 155.499ZM261.547 100.45V188.408H337.547V100.45H261.547Z" fill="#8F4AFF" fill-opacity="0.04" mask="url(#path-2-outside-1_1757_6530)"/>
<mask id="path-4-outside-2_1757_6530" maskUnits="userSpaceOnUse" x="217.002" y="104" width="189" height="208" fill="black">
<rect fill="white" x="217.002" y="104" width="189" height="208"/>
<path fill-rule="evenodd" clip-rule="evenodd" d="M302.881 130.776C302.881 125.929 306.81 122 311.657 122C316.504 122 320.433 125.929 320.433 130.776V192.801L374.15 161.787C378.348 159.364 383.715 160.802 386.139 164.999C388.562 169.197 387.124 174.564 382.926 176.988L329.206 208.003L382.923 239.017C387.121 241.44 388.559 246.808 386.136 251.005C383.712 255.203 378.345 256.641 374.147 254.217L320.433 223.206V285.224C320.433 290.071 316.504 294 311.657 294C306.81 294 302.881 290.071 302.881 285.224V223.202L249.171 254.212C244.973 256.635 239.606 255.197 237.182 250.999C234.759 246.802 236.197 241.434 240.395 239.011L294.102 208.003L240.391 176.994C236.194 174.57 234.756 169.203 237.179 165.005C239.603 160.808 244.97 159.369 249.168 161.793L302.881 192.804V130.776Z"/>
</mask>
<path fill-rule="evenodd" clip-rule="evenodd" d="M302.881 130.776C302.881 125.929 306.81 122 311.657 122C316.504 122 320.433 125.929 320.433 130.776V192.801L374.15 161.787C378.348 159.364 383.715 160.802 386.139 164.999C388.562 169.197 387.124 174.564 382.926 176.988L329.206 208.003L382.923 239.017C387.121 241.44 388.559 246.808 386.136 251.005C383.712 255.203 378.345 256.641 374.147 254.217L320.433 223.206V285.224C320.433 290.071 316.504 294 311.657 294C306.81 294 302.881 290.071 302.881 285.224V223.202L249.171 254.212C244.973 256.635 239.606 255.197 237.182 250.999C234.759 246.802 236.197 241.434 240.395 239.011L294.102 208.003L240.391 176.994C236.194 174.57 234.756 169.203 237.179 165.005C239.603 160.808 244.97 159.369 249.168 161.793L302.881 192.804V130.776Z" fill="#8F4AFF" fill-opacity="0.06"/>
<path d="M320.433 192.801H302.433V223.977L329.433 208.389L320.433 192.801ZM374.15 161.787L383.15 177.375L383.15 177.375L374.15 161.787ZM382.926 176.988L391.926 192.576L391.926 192.576L382.926 176.988ZM329.206 208.003L320.206 192.415L293.206 208.003L320.206 223.592L329.206 208.003ZM382.923 239.017L391.923 223.428H391.923L382.923 239.017ZM374.147 254.217L383.147 238.629L374.147 254.217ZM320.433 223.206L329.433 207.617L302.433 192.029V223.206H320.433ZM302.881 223.202H320.881V192.025L293.881 207.614L302.881 223.202ZM249.171 254.212L258.171 269.8H258.171L249.171 254.212ZM237.182 250.999L221.594 259.999L237.182 250.999ZM240.395 239.011L249.395 254.599H249.395L240.395 239.011ZM294.102 208.003L303.102 223.592L330.102 208.003L303.102 192.415L294.102 208.003ZM240.391 176.994L249.391 161.405H249.391L240.391 176.994ZM237.179 165.005L221.591 156.005L237.179 165.005ZM249.168 161.793L258.168 146.204L258.168 146.204L249.168 161.793ZM302.881 192.804L293.881 208.393L320.881 223.981V192.804H302.881ZM311.657 104C296.869 104 284.881 115.988 284.881 130.776H320.881C320.881 135.87 316.751 140 311.657 140V104ZM338.433 130.776C338.433 115.988 326.445 104 311.657 104V140C306.563 140 302.433 135.87 302.433 130.776H338.433ZM338.433 192.801V130.776H302.433V192.801H338.433ZM329.433 208.389L383.15 177.375L365.15 146.199L311.433 177.212L329.433 208.389ZM383.15 177.375C378.739 179.923 373.097 178.411 370.55 173.999L401.727 155.999C394.333 143.192 377.957 138.804 365.15 146.199L383.15 177.375ZM370.55 173.999C368.003 169.588 369.515 163.946 373.926 161.399L391.926 192.576C404.733 185.182 409.121 168.806 401.727 155.999L370.55 173.999ZM373.926 161.399L320.206 192.415L338.206 223.592L391.926 192.576L373.926 161.399ZM391.923 223.428L338.206 192.415L320.206 223.592L373.923 254.605L391.923 223.428ZM401.724 260.005C409.118 247.198 404.73 230.822 391.923 223.428L373.923 254.605C369.512 252.058 368 246.417 370.547 242.005L401.724 260.005ZM365.147 269.806C377.954 277.2 394.33 272.812 401.724 260.005L370.547 242.005C373.094 237.593 378.735 236.082 383.147 238.629L365.147 269.806ZM311.433 238.794L365.147 269.806L383.147 238.629L329.433 207.617L311.433 238.794ZM338.433 285.224V223.206H302.433V285.224H338.433ZM311.657 312C326.445 312 338.433 300.012 338.433 285.224H302.433C302.433 280.13 306.563 276 311.657 276V312ZM284.881 285.224C284.881 300.012 296.869 312 311.657 312V276C316.751 276 320.881 280.13 320.881 285.224H284.881ZM284.881 223.202V285.224H320.881V223.202H284.881ZM293.881 207.614L240.171 238.623L258.171 269.8L311.881 238.79L293.881 207.614ZM240.171 238.623C244.582 236.076 250.224 237.588 252.771 241.999L221.594 259.999C228.988 272.806 245.364 277.194 258.171 269.8L240.171 238.623ZM252.771 241.999C255.318 246.411 253.806 252.052 249.395 254.599L231.395 223.422C218.588 230.816 214.2 247.192 221.594 259.999L252.771 241.999ZM249.395 254.599L303.102 223.592L285.102 192.415L231.395 223.422L249.395 254.599ZM231.391 192.582L285.102 223.592L303.102 192.415L249.391 161.405L231.391 192.582ZM221.591 156.005C214.197 168.812 218.585 185.188 231.391 192.582L249.391 161.405C253.803 163.952 255.315 169.593 252.768 174.005L221.591 156.005ZM258.168 146.204C245.361 138.81 228.985 143.198 221.591 156.005L252.768 174.005C250.221 178.417 244.579 179.928 240.168 177.381L258.168 146.204ZM311.881 177.216L258.168 146.204L240.168 177.381L293.881 208.393L311.881 177.216ZM284.881 130.776V192.804H320.881V130.776H284.881Z" fill="#8F4AFF" fill-opacity="0.06" mask="url(#path-4-outside-2_1757_6530)"/>
<circle cx="312" cy="1" r="49" fill="#8F4AFF" fill-opacity="0.04"/>
<circle cx="312" cy="418" r="49" fill="#8F4AFF" fill-opacity="0.04"/>
<mask id="path-8-outside-3_1757_6530" maskUnits="userSpaceOnUse" x="280.002" y="174" width="64" height="69" fill="black">
<rect fill="white" x="280.002" y="174" width="64" height="69"/>
<path fill-rule="evenodd" clip-rule="evenodd" d="M309.166 182.908C309.166 181.302 310.469 180 312.075 180C313.681 180 314.983 181.302 314.983 182.908V203.464L332.784 193.186C334.175 192.383 335.954 192.86 336.757 194.251C337.56 195.642 337.084 197.421 335.693 198.224L317.891 208.501L335.691 218.778C337.082 219.581 337.559 221.36 336.756 222.751C335.952 224.142 334.174 224.618 332.783 223.815L314.983 213.539V234.092C314.983 235.698 313.681 237 312.075 237C310.469 237 309.166 235.698 309.166 234.092V213.539L291.367 223.815C289.976 224.618 288.197 224.142 287.394 222.751C286.591 221.36 287.067 219.581 288.458 218.778L306.258 208.501L288.457 198.224C287.066 197.421 286.589 195.642 287.392 194.251C288.195 192.86 289.974 192.383 291.365 193.186L309.166 203.464V182.908Z"/>
</mask>
<path fill-rule="evenodd" clip-rule="evenodd" d="M309.166 182.908C309.166 181.302 310.469 180 312.075 180C313.681 180 314.983 181.302 314.983 182.908V203.464L332.784 193.186C334.175 192.383 335.954 192.86 336.757 194.251C337.56 195.642 337.084 197.421 335.693 198.224L317.891 208.501L335.691 218.778C337.082 219.581 337.559 221.36 336.756 222.751C335.952 224.142 334.174 224.618 332.783 223.815L314.983 213.539V234.092C314.983 235.698 313.681 237 312.075 237C310.469 237 309.166 235.698 309.166 234.092V213.539L291.367 223.815C289.976 224.618 288.197 224.142 287.394 222.751C286.591 221.36 287.067 219.581 288.458 218.778L306.258 208.501L288.457 198.224C287.066 197.421 286.589 195.642 287.392 194.251C288.195 192.86 289.974 192.383 291.365 193.186L309.166 203.464V182.908Z" fill="#8F4AFF" fill-opacity="0.08"/>
<path d="M314.983 203.464H308.983V213.856L317.983 208.66L314.983 203.464ZM332.784 193.186L335.784 198.382L332.784 193.186ZM336.757 194.251L341.953 191.251L341.953 191.251L336.757 194.251ZM335.693 198.224L338.693 203.42H338.693L335.693 198.224ZM317.891 208.501L314.891 203.305L305.891 208.501L314.891 213.697L317.891 208.501ZM335.691 218.778L332.691 223.974L332.691 223.974L335.691 218.778ZM332.783 223.815L329.783 229.011L329.783 229.012L332.783 223.815ZM314.983 213.539L317.983 208.343L308.983 203.147V213.539H314.983ZM309.166 213.539H315.166V203.146L306.166 208.343L309.166 213.539ZM291.367 223.815L294.367 229.012L294.367 229.011L291.367 223.815ZM287.394 222.751L292.59 219.751L287.394 222.751ZM288.458 218.778L285.458 213.582L285.458 213.582L288.458 218.778ZM306.258 208.501L309.258 213.697L318.258 208.501L309.258 203.305L306.258 208.501ZM288.457 198.224L291.457 193.028L291.457 193.028L288.457 198.224ZM287.392 194.251L292.588 197.251L292.588 197.251L287.392 194.251ZM291.365 193.186L288.365 198.382H288.365L291.365 193.186ZM309.166 203.464L306.166 208.66L315.166 213.856V203.464H309.166ZM312.075 174C307.155 174 303.166 177.988 303.166 182.908H315.166C315.166 184.616 313.782 186 312.075 186V174ZM320.983 182.908C320.983 177.988 316.995 174 312.075 174V186C310.367 186 308.983 184.616 308.983 182.908H320.983ZM320.983 203.464V182.908H308.983V203.464H320.983ZM317.983 208.66L335.784 198.382L329.784 187.99L311.983 198.268L317.983 208.66ZM335.784 198.382C334.306 199.236 332.415 198.73 331.561 197.251L341.953 191.251C339.493 186.99 334.045 185.53 329.784 187.99L335.784 198.382ZM331.561 197.251C330.707 195.772 331.214 193.881 332.693 193.028L338.693 203.42C342.954 200.96 344.413 195.512 341.953 191.251L331.561 197.251ZM332.693 193.028L314.891 203.305L320.891 213.697L338.693 203.42L332.693 193.028ZM338.691 213.582L320.891 203.305L314.891 213.697L332.691 223.974L338.691 213.582ZM341.952 225.751C344.412 221.49 342.952 216.042 338.691 213.582L332.691 223.974C331.212 223.12 330.706 221.23 331.559 219.751L341.952 225.751ZM329.783 229.012C334.043 231.471 339.492 230.012 341.952 225.751L331.559 219.751C332.413 218.272 334.304 217.765 335.783 218.619L329.783 229.012ZM311.983 218.735L329.783 229.011L335.783 218.619L317.983 208.343L311.983 218.735ZM320.983 234.092V213.539H308.983V234.092H320.983ZM312.075 243C316.995 243 320.983 239.012 320.983 234.092H308.983C308.983 232.384 310.367 231 312.075 231V243ZM303.166 234.092C303.166 239.012 307.155 243 312.075 243V231C313.782 231 315.166 232.384 315.166 234.092H303.166ZM303.166 213.539V234.092H315.166V213.539H303.166ZM306.166 208.343L288.367 218.619L294.367 229.011L312.166 218.735L306.166 208.343ZM288.367 218.619C289.845 217.765 291.736 218.272 292.59 219.751L282.198 225.751C284.658 230.012 290.106 231.471 294.367 229.012L288.367 218.619ZM292.59 219.751C293.444 221.23 292.937 223.12 291.458 223.974L285.458 213.582C281.198 216.042 279.738 221.49 282.198 225.751L292.59 219.751ZM291.458 223.974L309.258 213.697L303.258 203.305L285.458 213.582L291.458 223.974ZM285.457 203.42L303.258 213.697L309.258 203.305L291.457 193.028L285.457 203.42ZM282.196 191.251C279.736 195.512 281.196 200.96 285.457 203.42L291.457 193.028C292.935 193.881 293.442 195.772 292.588 197.251L282.196 191.251ZM294.365 187.99C290.104 185.53 284.656 186.99 282.196 191.251L292.588 197.251C291.735 198.73 289.844 199.236 288.365 198.382L294.365 187.99ZM312.166 198.268L294.365 187.99L288.365 198.382L306.166 208.66L312.166 198.268ZM303.166 182.908V203.464H315.166V182.908H303.166Z" fill="#8F4AFF" fill-opacity="0.08" mask="url(#path-8-outside-3_1757_6530)"/>
</g>
</g>
<defs>
<clipPath id="clip0_1757_6530">
<rect width="370" height="420" rx="24" fill="white"/>
</clipPath>
</defs>
</svg>
