<svg width="343" height="300" viewBox="0 0 343 300" fill="none" xmlns="http://www.w3.org/2000/svg">
<g clip-path="url(#clip0_2892_1725)">
<rect width="343" height="300" rx="16" fill="#F8F4FD"/>
<g opacity="0.7">
<path fill-rule="evenodd" clip-rule="evenodd" d="M269.93 64.3387C269.93 58.8575 274.373 54.4141 279.854 54.4141C285.335 54.4141 289.779 58.8575 289.779 64.3387V134.478L350.524 99.4063C355.271 96.6657 361.341 98.2921 364.081 103.039C366.822 107.786 365.196 113.856 360.449 116.596L299.722 151.657L360.446 186.715C365.193 189.456 366.819 195.526 364.079 200.273C361.338 205.019 355.268 206.646 350.522 203.905L289.779 168.835V238.997C289.779 244.478 285.335 248.922 279.854 248.922C274.373 248.922 269.93 244.478 269.93 238.997V168.857L209.19 203.925C204.443 206.666 198.373 205.04 195.633 200.293C192.892 195.546 194.519 189.476 199.265 186.736L260.024 151.657L199.263 116.576C194.516 113.835 192.89 107.766 195.63 103.019C198.371 98.2719 204.441 96.6455 209.187 99.3861L269.93 134.456V64.3387Z" fill="#8F4AFF" fill-opacity="0.04"/>
<path fill-rule="evenodd" clip-rule="evenodd" d="M260.023 151.656L199.261 116.575C194.514 113.835 192.888 107.765 195.629 103.018C198.369 98.2714 204.439 96.645 209.186 99.3856L269.928 134.455V64.3382C269.928 58.857 274.371 54.4136 279.852 54.4136C285.334 54.4136 289.777 58.857 289.777 64.3382V134.477L350.523 99.4058C355.269 96.6652 361.339 98.2916 364.08 103.038C366.82 107.785 365.194 113.855 360.447 116.596L299.721 151.656L360.444 186.715C365.191 189.455 366.818 195.525 364.077 200.272C361.337 205.019 355.267 206.645 350.52 203.905L289.777 168.835V238.997C289.777 244.478 285.334 248.921 279.852 248.921C274.371 248.921 269.928 244.478 269.928 238.997V168.857L209.188 203.925C204.441 206.666 198.372 205.039 195.631 200.292C192.891 195.545 194.517 189.476 199.264 186.735L260.023 151.656ZM239.636 221.325L224.334 230.159C205.099 241.264 180.503 234.674 169.397 215.438C158.292 196.203 164.882 171.607 184.118 160.501L199.438 151.656L184.115 142.809C164.88 131.704 158.289 107.108 169.395 87.8722C180.5 68.6368 205.096 62.0462 224.332 73.1518L239.636 81.9875V64.3382C239.636 42.1271 257.641 24.1215 279.852 24.1215C302.064 24.1215 320.069 42.1271 320.069 64.3382V82.0097L335.376 73.172C354.612 62.0665 379.208 68.657 390.313 87.8924C401.419 107.128 394.829 131.724 375.593 142.829L360.305 151.656L375.591 160.481C394.826 171.587 401.416 196.183 390.311 215.418C379.205 234.654 354.609 241.244 335.374 230.138L320.069 221.302V238.997C320.069 261.208 302.064 279.213 279.852 279.213C257.641 279.213 239.636 261.208 239.636 238.997V221.325Z" fill="#8F4AFF" fill-opacity="0.04"/>
<path fill-rule="evenodd" clip-rule="evenodd" d="M272.584 88.5142C272.584 84.6504 275.716 81.5182 279.58 81.5182C283.443 81.5182 286.576 84.6504 286.576 88.5142V137.958L329.397 113.235C332.743 111.303 337.022 112.449 338.954 115.796C340.886 119.142 339.739 123.42 336.393 125.352L293.569 150.077L336.39 174.8C339.737 176.731 340.883 181.01 338.951 184.356C337.019 187.702 332.741 188.849 329.394 186.917L286.576 162.196V211.634C286.576 215.498 283.443 218.63 279.58 218.63C275.716 218.63 272.584 215.498 272.584 211.634V162.193L229.768 186.912C226.422 188.844 222.143 187.698 220.211 184.352C218.279 181.005 219.426 176.727 222.772 174.795L265.585 150.077L222.769 125.357C219.423 123.425 218.277 119.146 220.209 115.8C222.141 112.454 226.419 111.308 229.765 113.24L272.584 137.961V88.5142Z" fill="#8F4AFF" fill-opacity="0.06"/>
<path fill-rule="evenodd" clip-rule="evenodd" d="M265.587 150.076L222.771 125.356C219.425 123.424 218.278 119.146 220.21 115.799C222.142 112.453 226.421 111.307 229.767 113.239L272.583 137.958L272.585 137.96V88.5134C272.585 84.6496 275.718 81.5174 279.581 81.5174C283.445 81.5174 286.577 84.6496 286.577 88.5134V137.957L329.399 113.234C332.745 111.302 337.023 112.449 338.955 115.795C340.887 119.141 339.741 123.42 336.395 125.352L293.573 150.074L293.571 150.076L293.573 150.077L336.392 174.799C339.738 176.731 340.885 181.009 338.953 184.355C337.021 187.702 332.742 188.848 329.396 186.916L286.577 162.195V211.633C286.577 215.497 283.445 218.629 279.581 218.629C275.718 218.629 272.585 215.497 272.585 211.633V162.192L272.583 162.193L229.77 186.911C226.423 188.843 222.145 187.697 220.213 184.351C218.281 181.005 219.427 176.726 222.774 174.794L265.587 150.076ZM236.889 150.076L215.599 162.368C205.39 168.262 201.892 181.316 207.786 191.525C213.681 201.734 226.735 205.232 236.944 199.338L258.236 187.045V211.633C258.236 223.422 267.793 232.978 279.581 232.978C291.37 232.978 300.926 223.422 300.926 211.633V187.048L322.222 199.343C332.431 205.237 345.485 201.739 351.379 191.53C357.274 181.321 353.776 168.266 343.567 162.372L322.269 150.076L343.569 137.778C353.778 131.884 357.276 118.829 351.382 108.62C345.488 98.4112 332.433 94.9133 322.224 100.808L300.926 113.104V88.5134C300.926 76.7249 291.37 67.1685 279.581 67.1685C267.793 67.1685 258.236 76.725 258.236 88.5134V113.107L236.942 100.812C226.732 94.918 213.678 98.4159 207.784 108.625C201.89 118.834 205.388 131.889 215.597 137.783L236.889 150.076ZM336.573 125.661C336.571 125.662 336.569 125.663 336.567 125.664L336.573 125.661Z" fill="#8F4AFF" fill-opacity="0.06"/>
<circle cx="279.858" cy="-14.939" r="39.061" fill="#8F4AFF" fill-opacity="0.04"/>
<circle cx="279.858" cy="318.478" r="39.061" fill="#8F4AFF" fill-opacity="0.04"/>
<mask id="path-8-outside-1_2892_1725" maskUnits="userSpaceOnUse" x="252.93" y="121.754" width="53" height="58" fill="black">
<rect fill="white" x="252.93" y="121.754" width="53" height="58"/>
<path fill-rule="evenodd" clip-rule="evenodd" d="M277.601 130.072C277.601 128.792 278.639 127.754 279.92 127.754C281.2 127.754 282.238 128.792 282.238 130.072V146.46L296.431 138.266C297.539 137.626 298.957 138.006 299.598 139.115C300.238 140.223 299.858 141.641 298.749 142.282L284.557 150.475L298.743 158.666C299.852 159.306 300.232 160.724 299.592 161.833C298.952 162.942 297.534 163.322 296.425 162.681L282.238 154.491V170.874C282.238 172.154 281.2 173.192 279.92 173.192C278.639 173.192 277.601 172.154 277.601 170.874V154.491L263.414 162.682C262.305 163.322 260.887 162.943 260.247 161.834C259.607 160.725 259.987 159.307 261.096 158.667L275.283 150.475L261.09 142.281C259.981 141.64 259.601 140.223 260.241 139.114C260.881 138.005 262.299 137.625 263.408 138.265L277.601 146.459V130.072Z"/>
</mask>
<path fill-rule="evenodd" clip-rule="evenodd" d="M277.601 130.072C277.601 128.792 278.639 127.754 279.92 127.754C281.2 127.754 282.238 128.792 282.238 130.072V146.46L296.431 138.266C297.539 137.626 298.957 138.006 299.598 139.115C300.238 140.223 299.858 141.641 298.749 142.282L284.557 150.475L298.743 158.666C299.852 159.306 300.232 160.724 299.592 161.833C298.952 162.942 297.534 163.322 296.425 162.681L282.238 154.491V170.874C282.238 172.154 281.2 173.192 279.92 173.192C278.639 173.192 277.601 172.154 277.601 170.874V154.491L263.414 162.682C262.305 163.322 260.887 162.943 260.247 161.834C259.607 160.725 259.987 159.307 261.096 158.667L275.283 150.475L261.09 142.281C259.981 141.64 259.601 140.223 260.241 139.114C260.881 138.005 262.299 137.625 263.408 138.265L277.601 146.459V130.072Z" fill="#8F4AFF" fill-opacity="0.08"/>
<path d="M282.238 146.46H276.238V156.852L285.238 151.656L282.238 146.46ZM296.431 138.266L299.431 143.462V143.462L296.431 138.266ZM299.598 139.115L304.794 136.115L304.794 136.115L299.598 139.115ZM298.749 142.282L301.749 147.478L298.749 142.282ZM284.557 150.475L281.557 145.279L272.557 150.475L281.557 155.671L284.557 150.475ZM298.743 158.666L301.743 153.47L298.743 158.666ZM296.425 162.681L299.425 157.485L296.425 162.681ZM282.238 154.491L285.238 149.295L276.238 144.098V154.491H282.238ZM277.601 154.491H283.601V144.099L274.601 149.295L277.601 154.491ZM263.414 162.682L260.414 157.486H260.414L263.414 162.682ZM260.247 161.834L265.443 158.834L260.247 161.834ZM261.096 158.667L258.096 153.47H258.096L261.096 158.667ZM275.283 150.475L278.283 155.671L287.283 150.475L278.283 145.279L275.283 150.475ZM261.09 142.281L258.09 147.477H258.09L261.09 142.281ZM260.241 139.114L265.437 142.114L260.241 139.114ZM263.408 138.265L260.408 143.461L260.408 143.461L263.408 138.265ZM277.601 146.459L274.601 151.656L283.601 156.852V146.459H277.601ZM279.92 121.754C275.325 121.754 271.601 125.478 271.601 130.072H283.601C283.601 132.105 281.953 133.754 279.92 133.754V121.754ZM288.238 130.072C288.238 125.478 284.514 121.754 279.92 121.754V133.754C277.886 133.754 276.238 132.105 276.238 130.072H288.238ZM288.238 146.46V130.072H276.238V146.46H288.238ZM285.238 151.656L299.431 143.462L293.431 133.07L279.238 141.264L285.238 151.656ZM299.431 143.462C297.67 144.479 295.418 143.875 294.401 142.115L304.794 136.115C302.497 132.136 297.409 130.773 293.431 133.07L299.431 143.462ZM294.401 142.115C293.385 140.354 293.988 138.102 295.749 137.085L301.749 147.478C305.728 145.181 307.091 140.093 304.794 136.115L294.401 142.115ZM295.749 137.085L281.557 145.279L287.557 155.671L301.749 147.478L295.749 137.085ZM301.743 153.47L287.557 145.279L281.557 155.671L295.743 163.862L301.743 153.47ZM304.788 164.833C307.085 160.854 305.722 155.767 301.743 153.47L295.743 163.862C293.982 162.845 293.379 160.594 294.396 158.833L304.788 164.833ZM293.425 167.878C297.403 170.175 302.491 168.811 304.788 164.833L294.396 158.833C295.412 157.072 297.664 156.469 299.425 157.485L293.425 167.878ZM279.238 159.687L293.425 167.878L299.425 157.485L285.238 149.295L279.238 159.687ZM288.238 170.874V154.491H276.238V170.874H288.238ZM279.92 179.192C284.514 179.192 288.238 175.468 288.238 170.874H276.238C276.238 168.84 277.886 167.192 279.92 167.192V179.192ZM271.601 170.874C271.601 175.468 275.325 179.192 279.92 179.192V167.192C281.953 167.192 283.601 168.84 283.601 170.874H271.601ZM271.601 154.491V170.874H283.601V154.491H271.601ZM274.601 149.295L260.414 157.486L266.414 167.878L280.601 159.687L274.601 149.295ZM260.414 157.486C262.175 156.469 264.426 157.073 265.443 158.834L255.051 164.834C257.348 168.812 262.435 170.176 266.414 167.878L260.414 157.486ZM265.443 158.834C266.46 160.595 265.856 162.846 264.096 163.863L258.096 153.47C254.117 155.768 252.754 160.855 255.051 164.834L265.443 158.834ZM264.096 163.863L278.283 155.671L272.283 145.279L258.096 153.47L264.096 163.863ZM258.09 147.477L272.283 155.671L278.283 145.279L264.09 137.085L258.09 147.477ZM255.045 136.114C252.748 140.092 254.111 145.18 258.09 147.477L264.09 137.085C265.851 138.101 266.454 140.353 265.437 142.114L255.045 136.114ZM266.408 133.069C262.43 130.772 257.342 132.135 255.045 136.114L265.437 142.114C264.421 143.875 262.169 144.478 260.408 143.461L266.408 133.069ZM280.601 141.263L266.408 133.069L260.408 143.461L274.601 151.656L280.601 141.263ZM271.601 130.072V146.459H283.601V130.072H271.601Z" fill="#8F4AFF" fill-opacity="0.08" mask="url(#path-8-outside-1_2892_1725)"/>
</g>
</g>
<defs>
<clipPath id="clip0_2892_1725">
<rect width="343" height="300" rx="16" fill="white"/>
</clipPath>
</defs>
</svg>
