<svg width="64" height="64" viewBox="0 0 64 64" fill="none" xmlns="http://www.w3.org/2000/svg">
<path d="M31.8415 8.05469L51.1833 14.7567V42.2132L31.8416 55.9414L12.5 42.2132V14.7567L31.8415 8.05469Z" fill="#CBA1FF"/>
<path d="M31.9122 8.05469L51.1818 14.7567V42.2132L31.9123 55.9414L31.9121 42.2132L31.9123 14.7567L31.9122 8.05469Z" fill="#A36BFF"/>
<path opacity="0.92" d="M32.2921 14.4863L32.129 14.43L31.9658 14.4863L18.0888 19.2764L17.752 19.3926V19.749V39.3725V39.6314L17.9633 39.7808L31.8404 49.5926L32.129 49.7967L32.4177 49.5926L46.2948 39.7808L46.5061 39.6314V39.3725V19.749V19.3926L46.1693 19.2764L32.2921 14.4863Z" fill="#E5D0FF" stroke="white"/>
<ellipse opacity="0.26" cx="31.9831" cy="26.9643" rx="9.13155" ry="8.98775" fill="#8F4AFF"/>
<circle cx="31.9797" cy="39.0441" r="2.08516" fill="#7434E9"/>
<circle opacity="0.26" cx="31.9797" cy="43.7883" r="2.08516" fill="#8F4AFF"/>
</svg>
