<svg width="40" height="40" viewBox="0 0 40 40" fill="none" xmlns="http://www.w3.org/2000/svg">
<g clip-path="url(#clip0_4525_2870)">
<path d="M19.9232 0.851562C30.4976 0.851562 39.073 9.42699 39.073 20.0014C39.073 30.5757 30.4976 39.1512 19.9232 39.1512C9.34887 39.1512 0.773438 30.5757 0.773438 20.0014C0.773438 9.42699 9.34887 0.851562 19.9232 0.851562Z" fill="#202020"/>
<path d="M14.5386 17.3854L15.4154 16.5085L14.3194 15.4125L13.4425 16.2893C12.9084 16.821 12.4846 17.453 12.1954 18.1489C11.9062 18.8449 11.7573 19.5911 11.7573 20.3447C11.7573 21.0984 11.9062 21.8446 12.1954 22.5405C12.4846 23.2365 12.9084 23.8684 13.4425 24.4001L14.3194 25.277L15.4154 24.1809L14.5386 23.3041C14.1479 22.9166 13.8377 22.4556 13.6261 21.9477C13.4145 21.4398 13.3055 20.895 13.3055 20.3447C13.3055 19.7945 13.4145 19.2497 13.6261 18.7417C13.8377 18.2338 14.1479 17.7728 14.5386 17.3854Z" fill="white"/>
<path d="M25.8279 28.0171L21.4437 23.6329C21.1524 23.3433 20.7584 23.1808 20.3477 23.1808C19.9369 23.1808 19.5429 23.3433 19.2516 23.6329L14.8674 28.0171C14.5778 28.3084 14.4153 28.7024 14.4153 29.1131C14.4153 29.5239 14.5778 29.9179 14.8674 30.2092L19.2516 34.5934C19.5429 34.883 19.9369 35.0455 20.3477 35.0455C20.7584 35.0455 21.1524 34.883 21.4437 34.5934L25.8279 30.2092C26.1175 29.9179 26.28 29.5239 26.28 29.1131C26.28 28.7024 26.1175 28.3084 25.8279 28.0171ZM15.9634 29.1131L20.3477 24.7289L24.7319 29.1131L20.3477 33.4974L15.9634 29.1131Z" fill="white"/>
<path d="M26.1567 23.3041L25.2799 24.1809L26.3759 25.277L27.2528 24.4001C27.7869 23.8684 28.2107 23.2365 28.4999 22.5405C28.7891 21.8446 28.938 21.0984 28.938 20.3447C28.938 19.5911 28.7891 18.8449 28.4999 18.1489C28.2107 17.453 27.7869 16.821 27.2528 16.2893L26.3759 15.4125L25.2799 16.5085L26.1567 17.3854C26.5474 17.7728 26.8576 18.2338 27.0692 18.7417C27.2808 19.2497 27.3898 19.7945 27.3898 20.3447C27.3898 20.895 27.2808 21.4398 27.0692 21.9477C26.8576 22.4556 26.5474 22.9166 26.1567 23.3041Z" fill="white"/>
<path d="M25.8279 10.4803L21.4437 6.09605C21.1524 5.80648 20.7584 5.64394 20.3477 5.64394C19.9369 5.64394 19.5429 5.80648 19.2516 6.09605L14.8674 10.4803C14.5778 10.7715 14.4153 11.1656 14.4153 11.5763C14.4153 11.987 14.5778 12.3811 14.8674 12.6724L19.2516 17.0566C19.5429 17.3461 19.9369 17.5087 20.3477 17.5087C20.7584 17.5087 21.1524 17.3461 21.4437 17.0566L25.8279 12.6724C26.1175 12.3811 26.28 11.987 26.28 11.5763C26.28 11.1656 26.1175 10.7715 25.8279 10.4803ZM15.9634 11.5763L20.3477 7.1921L24.7319 11.5763L20.3477 15.9605L15.9634 11.5763Z" fill="white"/>
<path d="M23.306 14.5347L24.1829 15.4115L25.2789 14.3155L24.4021 13.4386C23.8704 12.9045 23.2384 12.4807 22.5425 12.1915C21.8465 11.9023 21.1003 11.7534 20.3467 11.7534C19.593 11.7534 18.8468 11.9023 18.1509 12.1915C17.4549 12.4807 16.823 12.9045 16.2913 13.4386L15.4144 14.3155L16.5105 15.4115L17.3873 14.5347C17.7748 14.144 18.2358 13.8338 18.7437 13.6222C19.2516 13.4106 19.7964 13.3016 20.3467 13.3016C20.8969 13.3016 21.4417 13.4106 21.9497 13.6222C22.4576 13.8338 22.9186 14.144 23.306 14.5347Z" fill="white"/>
<path d="M12.6743 25.824L17.0585 21.4398C17.3481 21.1485 17.5106 20.7545 17.5106 20.3438C17.5106 19.933 17.3481 19.539 17.0585 19.2477L12.6743 14.8635C12.383 14.5739 11.989 14.4114 11.5783 14.4114C11.1675 14.4114 10.7735 14.5739 10.4822 14.8635L6.098 19.2477C5.80843 19.539 5.64589 19.933 5.64589 20.3438C5.64589 20.7545 5.80843 21.1485 6.098 21.4398L10.4822 25.824C10.7735 26.1136 11.1675 26.2761 11.5783 26.2761C11.989 26.2761 12.383 26.1136 12.6743 25.824ZM11.5783 15.9595L15.9625 20.3438L11.5783 24.728L7.19405 20.3438L11.5783 15.9595Z" fill="white"/>
<path d="M17.3873 26.1528L16.5105 25.276L15.4144 26.372L16.2913 27.2489C16.823 27.783 17.4549 28.2068 18.1509 28.496C18.8468 28.7852 19.593 28.9341 20.3467 28.9341C21.1003 28.9341 21.8465 28.7852 22.5425 28.496C23.2384 28.2068 23.8704 27.783 24.4021 27.2489L25.2789 26.372L24.1829 25.276L23.306 26.1528C22.9186 26.5435 22.4576 26.8537 21.9497 27.0653C21.4417 27.2769 20.8969 27.3859 20.3467 27.3859C19.7964 27.3859 19.2516 27.2769 18.7437 27.0653C18.2358 26.8537 17.7748 26.5435 17.3873 26.1528Z" fill="white"/>
<path d="M30.2111 25.824L34.5954 21.4398C34.8849 21.1485 35.0475 20.7545 35.0475 20.3438C35.0475 19.933 34.8849 19.539 34.5954 19.2477L30.2111 14.8635C29.9199 14.5739 29.5258 14.4114 29.1151 14.4114C28.7044 14.4114 28.3103 14.5739 28.019 14.8635L23.6348 19.2477C23.3453 19.539 23.1827 19.933 23.1827 20.3438C23.1827 20.7545 23.3453 21.1485 23.6348 21.4398L28.019 25.824C28.3103 26.1136 28.7044 26.2761 29.1151 26.2761C29.5258 26.2761 29.9199 26.1136 30.2111 25.824ZM29.1151 15.9595L33.4993 20.3438L29.1151 24.728L24.7309 20.3438L29.1151 15.9595Z" fill="white"/>
</g>
<defs>
<clipPath id="clip0_4525_2870">
<rect width="40" height="40" fill="white"/>
</clipPath>
</defs>
</svg>
