<svg width="24" height="24" viewBox="0 0 24 24" fill="none" xmlns="http://www.w3.org/2000/svg">
<path d="M12 24C18.6274 24 24 18.6274 24 12C24 5.37258 18.6274 0 12 0C5.37259 0 0 5.37258 0 12C0 18.6274 5.37259 24 12 24Z" fill="#D9D9D9"/>
<path d="M14.0841 6.69518L13.9001 6.90463C16.1295 7.58676 17.1655 8.56986 17.1655 8.56986C15.8021 7.82263 14.4643 7.45562 13.2189 7.31127C12.2745 7.20654 11.3697 7.23296 10.5696 7.33768C10.4913 7.33768 10.4253 7.35089 10.347 7.3641C9.88846 7.40373 8.77328 7.57355 7.37033 8.19058C6.88539 8.41324 6.59669 8.5708 6.59669 8.5708C6.59669 8.5708 7.68545 7.53487 10.0451 6.85274L9.91393 6.69518C9.91393 6.69518 8.11757 6.65555 6.22968 8.0717C6.22968 8.0717 4.3418 11.4946 4.3418 15.7166C4.3418 15.7166 5.44283 17.6177 8.34117 17.7102C8.34117 17.7102 8.82611 17.1205 9.21953 16.6214C7.55431 16.1233 6.92502 15.0741 6.92502 15.0741C6.92502 15.0741 7.05616 15.1657 7.29203 15.2968C7.30524 15.31 7.31844 15.3232 7.34486 15.3364C7.38449 15.3628 7.42317 15.3761 7.46279 15.4015C7.79018 15.5855 8.11851 15.7289 8.42042 15.8478C8.9582 16.0572 9.6007 16.2676 10.3479 16.412C11.331 16.596 12.4849 16.6611 13.7444 16.4252C14.3605 16.3205 14.9898 16.1365 15.6455 15.861C16.104 15.6902 16.6154 15.4412 17.1532 15.0873C17.1532 15.0873 16.4975 16.1629 14.7794 16.6479C15.1728 17.146 15.6446 17.7102 15.6446 17.7102C18.5429 17.6187 19.6571 15.7166 19.6571 15.7166C19.6571 11.4946 17.7693 8.0717 17.7693 8.0717C15.8814 6.65555 14.085 6.69518 14.085 6.69518H14.0841ZM9.54693 14.4977C8.81291 14.4977 8.20908 13.842 8.20908 13.0419C8.20908 12.2418 8.79876 11.5861 9.54693 11.5861C10.2951 11.5861 10.898 12.2418 10.8848 13.0419C10.8848 13.842 10.2951 14.4977 9.54693 14.4977ZM14.3332 14.4977C13.5991 14.4977 12.9953 13.842 12.9953 13.0419C12.9953 12.2418 13.585 11.5861 14.3332 11.5861C15.0813 11.5861 15.671 12.2418 15.671 13.0419C15.671 13.842 15.0813 14.4977 14.3332 14.4977Z" fill="white"/>
</svg>
