<svg width="785" height="636" viewBox="0 0 785 636" fill="none" xmlns="http://www.w3.org/2000/svg">
  <g clip-path="url(#clip0_3838_2648)">
  <rect width="785" height="636" rx="24" fill="#F2F2F2"/>
  <g clip-path="url(#clip1_3838_2648)">
  <path fill-rule="evenodd" clip-rule="evenodd" d="M-115 -34C-128.255 -34 -139 -23.2548 -139 -10V106C-139 119.255 -128.255 130 -115 130H1C14.2548 130 25 119.255 25 106V-10C25 -23.2548 14.2548 -34 1 -34H-115ZM65 -34C51.7452 -34 41 -23.2548 41 -10V106C41 119.255 51.7452 130 65 130H181C194.255 130 205 119.255 205 106V-10C205 -23.2548 194.255 -34 181 -34H65ZM221 -10C221 -23.2548 231.745 -34 245 -34H361C374.255 -34 385 -23.2548 385 -10V106C385 119.255 374.255 130 361 130H245C231.745 130 221 119.255 221 106V-10ZM-115 146C-128.255 146 -139 156.745 -139 170V286C-139 299.255 -128.255 310 -115 310H1C14.2548 310 25 299.255 25 286V170C25 156.745 14.2548 146 1 146H-115ZM41 170C41 156.745 51.7452 146 65 146H181C194.255 146 205 156.745 205 170V286C205 299.255 194.255 310 181 310H65C51.7452 310 41 299.255 41 286V170ZM425 -34C411.745 -34 401 -23.2548 401 -10V106C401 119.255 411.745 130 425 130H541C554.255 130 565 119.255 565 106V-10C565 -23.2548 554.255 -34 541 -34H425ZM581 -10C581 -23.2548 591.745 -34 605 -34H721C734.255 -34 745 -23.2548 745 -10V106C745 119.255 734.255 130 721 130H605C591.745 130 581 119.255 581 106V-10ZM785 -34C771.745 -34 761 -23.2548 761 -10V106C761 119.255 771.745 130 785 130H901C914.255 130 925 119.255 925 106V-10C925 -23.2548 914.255 -34 901 -34H785ZM581 170C581 156.745 591.745 146 605 146H721C734.255 146 745 156.745 745 170V286C745 299.255 734.255 310 721 310H605C591.745 310 581 299.255 581 286V170ZM785 146C771.745 146 761 156.745 761 170V286C761 299.255 771.745 310 785 310H901C914.255 310 925 299.255 925 286V170C925 156.745 914.255 146 901 146H785ZM-139 350C-139 336.745 -128.255 326 -115 326H1C14.2548 326 25 336.745 25 350V466C25 479.255 14.2548 490 1 490H-115C-128.255 490 -139 479.255 -139 466V350ZM65 326C51.7452 326 41 336.745 41 350V466C41 479.255 51.7452 490 65 490H181C194.255 490 205 479.255 205 466V350C205 336.745 194.255 326 181 326H65ZM-139 530C-139 516.745 -128.255 506 -115 506H1C14.2548 506 25 516.745 25 530V646C25 659.255 14.2548 670 1 670H-115C-128.255 670 -139 659.255 -139 646V530ZM65 506C51.7452 506 41 516.745 41 530V646C41 659.255 51.7452 670 65 670H181C194.255 670 205 659.255 205 646V530C205 516.745 194.255 506 181 506H65ZM221 530C221 516.745 231.745 506 245 506H361C374.255 506 385 516.745 385 530V646C385 659.255 374.255 670 361 670H245C231.745 670 221 659.255 221 646V530ZM605 326C591.745 326 581 336.745 581 350V466C581 479.255 591.745 490 605 490H721C734.255 490 745 479.255 745 466V350C745 336.745 734.255 326 721 326H605ZM761 350C761 336.745 771.745 326 785 326H901C914.255 326 925 336.745 925 350V466C925 479.255 914.255 490 901 490H785C771.745 490 761 479.255 761 466V350ZM425 506C411.745 506 401 516.745 401 530V646C401 659.255 411.745 670 425 670H541C554.255 670 565 659.255 565 646V530C565 516.745 554.255 506 541 506H425ZM581 530C581 516.745 591.745 506 605 506H721C734.255 506 745 516.745 745 530V646C745 659.255 734.255 670 721 670H605C591.745 670 581 659.255 581 646V530ZM785 506C771.745 506 761 516.745 761 530V646C761 659.255 771.745 670 785 670H901C914.255 670 925 659.255 925 646V530C925 516.745 914.255 506 901 506H785Z" fill="url(#paint0_radial_3838_2648)"/>
  <path d="M225 174C225 160.745 235.745 150 249 150H389.001V313.998H225V174Z" fill="white"/>
  <rect x="279" y="194.5" width="56" height="56" rx="28" fill="black"/>
  <path fill-rule="evenodd" clip-rule="evenodd" d="M290.078 217.32C292.273 210.419 298.736 205.42 306.368 205.42C315.806 205.42 323.457 213.067 323.457 222.5C323.457 231.263 316.855 238.485 308.35 239.466V234.088C312.078 233.456 315.21 231.074 316.867 227.817H312.132C310.699 229.366 308.648 230.336 306.37 230.336C302.037 230.336 298.525 226.828 298.525 222.5C298.525 218.173 302.037 214.665 306.37 214.665C308.715 214.665 310.821 215.693 312.258 217.323H316.937C315.02 213.428 311.008 210.747 306.37 210.747C299.871 210.747 294.602 216.009 294.602 222.5C294.602 228.325 298.844 233.16 304.411 234.091V239.469C297.698 238.705 292.165 234.052 290.123 227.82H286.036C288.393 236.842 296.603 243.5 306.368 243.5C317.972 243.5 327.38 234.098 327.38 222.5C327.38 210.902 317.972 201.5 306.368 201.5C296.552 201.5 288.308 208.227 286 217.32H290.078Z" fill="white"/>
  <path d="M310.67 222.491C310.67 224.87 308.74 226.799 306.36 226.799C303.979 226.799 302.049 224.87 302.049 222.491C302.049 220.112 303.979 218.184 306.36 218.184C308.74 218.184 310.67 220.112 310.67 222.491Z" fill="#FF7C2B"/>
  <path d="M282.522 269.7H286.078C287.011 269.7 287.744 269.924 288.276 270.372C288.808 270.811 289.074 271.427 289.074 272.22C289.074 272.649 288.948 273.041 288.696 273.396C288.444 273.741 288.141 273.989 287.786 274.138C288.318 274.325 288.738 274.628 289.046 275.048C289.354 275.459 289.508 275.991 289.508 276.644C289.508 277.531 289.223 278.231 288.654 278.744C288.085 279.248 287.296 279.5 286.288 279.5H282.522V269.7ZM286.078 278.352C286.787 278.352 287.324 278.207 287.688 277.918C288.052 277.619 288.234 277.185 288.234 276.616C288.234 276.037 288.052 275.599 287.688 275.3C287.324 275.001 286.787 274.852 286.078 274.852H283.796V278.352H286.078ZM286.022 273.732C286.61 273.732 287.053 273.611 287.352 273.368C287.66 273.116 287.814 272.747 287.814 272.262C287.814 271.777 287.66 271.413 287.352 271.17C287.053 270.918 286.61 270.792 286.022 270.792H283.796V273.732H286.022ZM295.406 274.908C295.406 274.423 295.247 274.04 294.93 273.76C294.622 273.471 294.207 273.326 293.684 273.326C293.199 273.326 292.797 273.461 292.48 273.732C292.163 274.003 291.981 274.376 291.934 274.852L290.828 274.642C290.931 273.942 291.243 273.382 291.766 272.962C292.298 272.542 292.937 272.332 293.684 272.332C294.552 272.332 295.252 272.57 295.784 273.046C296.316 273.522 296.582 274.166 296.582 274.978V279.5H295.406V278.296C295.201 278.697 294.883 279.019 294.454 279.262C294.034 279.495 293.567 279.612 293.054 279.612C292.354 279.612 291.78 279.421 291.332 279.038C290.893 278.646 290.674 278.142 290.674 277.526C290.674 276.854 290.949 276.327 291.5 275.944C292.06 275.561 292.905 275.314 294.034 275.202L295.406 275.048V274.908ZM291.864 277.512C291.864 277.839 291.99 278.109 292.242 278.324C292.503 278.529 292.835 278.632 293.236 278.632C293.917 278.632 294.449 278.422 294.832 278.002C295.215 277.582 295.406 277.017 295.406 276.308V275.972L294.034 276.126C293.325 276.201 292.783 276.359 292.41 276.602C292.046 276.835 291.864 277.139 291.864 277.512ZM302.003 279.612C301.489 279.612 301.018 279.505 300.589 279.29C300.159 279.075 299.865 278.805 299.707 278.478V279.5H298.517V269.588H299.707V273.452C299.931 273.116 300.253 272.845 300.673 272.64C301.102 272.435 301.55 272.332 302.017 272.332C302.726 272.332 303.333 272.491 303.837 272.808C304.35 273.116 304.737 273.545 304.999 274.096C305.269 274.647 305.405 275.272 305.405 275.972C305.405 276.672 305.269 277.297 304.999 277.848C304.737 278.399 304.35 278.833 303.837 279.15C303.323 279.458 302.712 279.612 302.003 279.612ZM299.595 275.972C299.595 276.747 299.805 277.372 300.225 277.848C300.645 278.315 301.2 278.548 301.891 278.548C302.581 278.548 303.137 278.315 303.557 277.848C303.977 277.372 304.187 276.747 304.187 275.972C304.187 275.197 303.977 274.577 303.557 274.11C303.137 273.634 302.581 273.396 301.891 273.396C301.2 273.396 300.645 273.634 300.225 274.11C299.805 274.577 299.595 275.197 299.595 275.972ZM312.559 272.444L308.863 282.048H307.645L308.667 279.402L305.909 272.444H307.197L309.269 277.848L311.341 272.444H312.559ZM313.706 269.588H314.896V279.5H313.706V269.588ZM320.001 279.612C319.311 279.612 318.69 279.458 318.139 279.15C317.598 278.833 317.173 278.399 316.865 277.848C316.567 277.297 316.417 276.672 316.417 275.972C316.417 275.272 316.567 274.647 316.865 274.096C317.173 273.545 317.598 273.116 318.139 272.808C318.69 272.491 319.311 272.332 320.001 272.332C320.692 272.332 321.308 272.491 321.849 272.808C322.4 273.116 322.829 273.545 323.137 274.096C323.445 274.647 323.599 275.272 323.599 275.972C323.599 276.672 323.445 277.297 323.137 277.848C322.829 278.399 322.4 278.833 321.849 279.15C321.308 279.458 320.692 279.612 320.001 279.612ZM317.635 275.972C317.635 276.728 317.855 277.349 318.293 277.834C318.732 278.31 319.301 278.548 320.001 278.548C320.701 278.548 321.271 278.31 321.709 277.834C322.148 277.349 322.367 276.728 322.367 275.972C322.367 275.216 322.148 274.6 321.709 274.124C321.271 273.639 320.701 273.396 320.001 273.396C319.301 273.396 318.732 273.639 318.293 274.124C317.855 274.6 317.635 275.216 317.635 275.972ZM325.122 272.444H326.312V273.774C326.564 273.335 326.9 272.985 327.32 272.724C327.74 272.463 328.212 272.332 328.734 272.332C329.472 272.332 330.074 272.561 330.54 273.018C331.016 273.475 331.254 274.077 331.254 274.824V279.5H330.064V275.048C330.064 274.563 329.92 274.171 329.63 273.872C329.341 273.564 328.954 273.41 328.468 273.41C327.806 273.41 327.278 273.681 326.886 274.222C326.504 274.754 326.312 275.482 326.312 276.406V279.5H325.122V272.444Z" fill="#202020"/>
  <path d="M397 150H537.001C550.256 150 561.001 160.745 561.001 174V313.998H397V150Z" fill="white"/>
  <g clip-path="url(#clip2_3838_2648)">
  <path d="M478.89 195.691C493.694 195.691 505.7 207.697 505.7 222.501C505.7 237.305 493.694 249.311 478.89 249.311C464.086 249.311 452.08 237.305 452.08 222.501C452.08 207.697 464.086 195.691 478.89 195.691Z" fill="#111111"/>
  <path fill-rule="evenodd" clip-rule="evenodd" d="M478.892 196.878C464.744 196.878 453.271 208.352 453.271 222.499C453.271 236.646 464.744 248.119 478.892 248.119C493.039 248.119 504.512 236.646 504.512 222.499C504.512 208.352 493.039 196.878 478.892 196.878ZM450.893 222.499C450.893 207.038 463.431 194.5 478.892 194.5C494.352 194.5 506.89 207.038 506.89 222.499C506.89 237.96 494.352 250.498 478.892 250.498C463.431 250.498 450.893 237.96 450.893 222.499Z" fill="#111111"/>
  <path d="M478.891 195.199C463.807 195.199 451.592 207.415 451.592 222.499C451.592 237.569 463.807 249.798 478.891 249.798C493.961 249.798 506.191 237.583 506.191 222.499C506.191 207.415 493.961 195.199 478.891 195.199Z" fill="url(#paint1_radial_3838_2648)" fill-opacity="0.7"/>
  <path fill-rule="evenodd" clip-rule="evenodd" d="M478.891 196.909C464.752 196.909 453.299 208.361 453.299 222.5C453.299 236.639 464.752 248.091 478.891 248.091C493.03 248.091 504.482 236.639 504.482 222.5C504.482 208.361 493.03 196.909 478.891 196.909ZM450.891 222.5C450.891 207.031 463.421 194.5 478.891 194.5C494.36 194.5 506.891 207.031 506.891 222.5C506.891 237.969 494.36 250.5 478.891 250.5C463.421 250.5 450.891 237.969 450.891 222.5Z" fill="url(#paint2_linear_3838_2648)"/>
  <path fill-rule="evenodd" clip-rule="evenodd" d="M472.915 209.809H472.328L471.95 210.256L462.225 221.688L461.525 222.5L462.225 223.311L471.964 234.743L472.342 235.191H472.929H490.462H491.721V233.932V226.656H489.203V232.672H475.686L483.774 223.325L484.487 222.5L483.774 221.674L475.686 212.327H489.203V218.344H491.721V211.068V209.809H490.462H472.915ZM472.929 212.999L464.842 222.5L472.929 232.001L481.143 222.5L472.929 212.999Z" fill="white"/>
  </g>
  <path d="M457.522 269.7H463.696V270.834H458.796V273.718H462.772V274.866H458.796V278.352H463.85V279.5H457.522V269.7ZM468.997 279.444C468.689 279.556 468.321 279.612 467.891 279.612C467.257 279.612 466.748 279.43 466.365 279.066C465.992 278.693 465.805 278.133 465.805 277.386V273.494H464.489V272.444H465.805V270.302H466.995V272.444H468.885V273.494H466.995V277.428C466.995 277.792 467.089 278.067 467.275 278.254C467.462 278.441 467.714 278.534 468.031 278.534C468.377 278.534 468.671 278.473 468.913 278.352L468.997 279.444ZM470.509 269.588H471.699V273.83C471.951 273.335 472.282 272.962 472.693 272.71C473.113 272.458 473.584 272.332 474.107 272.332C474.91 272.332 475.549 272.561 476.025 273.018C476.51 273.475 476.753 274.087 476.753 274.852V279.5H475.563V275.076C475.563 274.553 475.409 274.147 475.101 273.858C474.802 273.559 474.382 273.41 473.841 273.41C473.188 273.41 472.665 273.685 472.273 274.236C471.89 274.787 471.699 275.533 471.699 276.476V279.5H470.509V269.588ZM478.279 275.972C478.279 275.3 478.414 274.689 478.685 274.138C478.965 273.578 479.361 273.139 479.875 272.822C480.397 272.495 481.004 272.332 481.695 272.332C482.367 272.332 482.959 272.481 483.473 272.78C483.986 273.069 484.378 273.471 484.649 273.984C484.929 274.488 485.069 275.043 485.069 275.65C485.069 275.846 485.059 276.028 485.041 276.196H479.469C479.506 276.905 479.73 277.479 480.141 277.918C480.561 278.347 481.088 278.562 481.723 278.562C482.264 278.562 482.712 278.441 483.067 278.198C483.421 277.955 483.65 277.615 483.753 277.176L484.873 277.442C484.695 278.123 484.327 278.655 483.767 279.038C483.216 279.421 482.535 279.612 481.723 279.612C481.032 279.612 480.425 279.453 479.903 279.136C479.389 278.809 478.988 278.371 478.699 277.82C478.419 277.26 478.279 276.644 478.279 275.972ZM483.809 275.202C483.753 274.642 483.538 274.189 483.165 273.844C482.791 273.499 482.301 273.326 481.695 273.326C481.144 273.326 480.677 273.494 480.295 273.83C479.912 274.157 479.66 274.614 479.539 275.202H483.809ZM486.601 272.444H487.791V273.774C488.043 273.335 488.379 272.985 488.799 272.724C489.219 272.463 489.69 272.332 490.213 272.332C490.95 272.332 491.552 272.561 492.019 273.018C492.495 273.475 492.733 274.077 492.733 274.824V279.5H491.543V275.048C491.543 274.563 491.398 274.171 491.109 273.872C490.819 273.564 490.432 273.41 489.947 273.41C489.284 273.41 488.757 273.681 488.365 274.222C487.982 274.754 487.791 275.482 487.791 276.406V279.5H486.601V272.444ZM499.021 274.908C499.021 274.423 498.863 274.04 498.545 273.76C498.237 273.471 497.822 273.326 497.299 273.326C496.814 273.326 496.413 273.461 496.095 273.732C495.778 274.003 495.596 274.376 495.549 274.852L494.443 274.642C494.546 273.942 494.859 273.382 495.381 272.962C495.913 272.542 496.553 272.332 497.299 272.332C498.167 272.332 498.867 272.57 499.399 273.046C499.931 273.522 500.197 274.166 500.197 274.978V279.5H499.021V278.296C498.816 278.697 498.499 279.019 498.069 279.262C497.649 279.495 497.183 279.612 496.669 279.612C495.969 279.612 495.395 279.421 494.947 279.038C494.509 278.646 494.289 278.142 494.289 277.526C494.289 276.854 494.565 276.327 495.115 275.944C495.675 275.561 496.52 275.314 497.649 275.202L499.021 275.048V274.908ZM495.479 277.512C495.479 277.839 495.605 278.109 495.857 278.324C496.119 278.529 496.45 278.632 496.851 278.632C497.533 278.632 498.065 278.422 498.447 278.002C498.83 277.582 499.021 277.017 499.021 276.308V275.972L497.649 276.126C496.94 276.201 496.399 276.359 496.025 276.602C495.661 276.835 495.479 277.139 495.479 277.512Z" fill="#202020"/>
  <path d="M225 322H389.001V485.998H249C235.745 485.998 225 475.253 225 461.998V322Z" fill="white"/>
  <circle cx="307" cy="394.5" r="28" fill="#17182C"/>
  <path d="M329.5 407.004L307.035 374.004L284.5 407.004H315.895L307.035 394.409L302.639 400.952H297.965L307.035 387.795L320.151 407.004H329.5Z" fill="url(#paint3_linear_3838_2648)"/>
  <path d="M296.792 451.612C295.952 451.612 295.173 451.421 294.454 451.038C293.735 450.655 293.157 450.091 292.718 449.344C292.289 448.588 292.074 447.673 292.074 446.6C292.074 445.527 292.293 444.617 292.732 443.87C293.171 443.114 293.749 442.545 294.468 442.162C295.196 441.779 295.98 441.588 296.82 441.588C297.912 441.588 298.831 441.868 299.578 442.428C300.334 442.988 300.81 443.739 301.006 444.682L299.746 444.948C299.606 444.257 299.275 443.716 298.752 443.324C298.239 442.923 297.595 442.722 296.82 442.722C296.148 442.722 295.555 442.876 295.042 443.184C294.529 443.483 294.123 443.926 293.824 444.514C293.535 445.093 293.39 445.788 293.39 446.6C293.39 447.412 293.535 448.107 293.824 448.686C294.113 449.265 294.515 449.708 295.028 450.016C295.551 450.315 296.143 450.464 296.806 450.464C297.403 450.464 297.931 450.343 298.388 450.1C298.845 449.857 299.2 449.517 299.452 449.078C299.704 448.63 299.835 448.121 299.844 447.552H296.428V446.446H301.048V451.5H299.886V449.988C299.662 450.483 299.265 450.879 298.696 451.178C298.127 451.467 297.492 451.612 296.792 451.612ZM302.913 441.7H304.453L307.757 449.652L311.061 441.7H312.601V451.5H311.341V444.108L308.289 451.5H307.225L304.159 444.108V451.5H302.913V441.7ZM317.149 446.222L314.279 441.7H315.609L317.807 445.172L320.005 441.7H321.349L318.479 446.236L321.811 451.5H320.481L317.807 447.286L315.133 451.5H313.803L317.149 446.222Z" fill="#202020"/>
  <path d="M397 322H561.001V461.998C561.001 475.253 550.256 485.998 537.001 485.998H397V322Z" fill="white"/>
  <rect x="451" y="366.5" width="56" height="56" rx="28" fill="#DF5E00"/>
  <g clip-path="url(#clip3_3838_2648)">
  <path d="M480.336 375.932C481.061 376.647 481.114 377.836 480.649 378.698C480.639 378.717 480.639 378.736 480.647 378.755C481.355 380.381 481.953 381.801 482.782 382.979C483.816 384.45 484.879 385.832 485.779 387.469C485.939 387.761 485.941 387.999 485.904 388.315C485.902 388.337 485.908 388.356 485.921 388.373C486.392 388.959 486.95 388.952 487.666 388.891C488.734 388.799 489.479 388.76 489.901 388.775C492.634 388.87 494.9 390.78 495.051 393.609C495.128 395.043 494.922 396.374 494.178 397.577C493.383 398.861 492.304 399.857 490.941 400.565C490.641 400.721 490.339 400.875 490.037 401.028C488.755 401.677 488.155 403.601 488.487 404.93C488.58 405.298 488.855 406.114 489.313 407.377C489.377 407.553 489.404 407.691 489.392 407.79C489.335 408.275 488.594 408.494 488.182 408.532C488.172 408.533 488.162 408.538 488.154 408.545C488.146 408.552 488.141 408.562 488.139 408.572C487.941 409.713 487.357 410.932 486.395 411.609C486.12 411.803 485.722 411.984 485.204 412.152C483.805 412.605 482.377 412.853 480.918 412.895C478.56 412.962 476.319 412.805 474.119 412.019C473.029 411.63 472.258 410.671 471.87 409.601C471.172 407.678 471.421 405.624 472.282 403.805C472.581 403.172 472.936 402.472 473.163 401.886C474.01 399.699 474.161 397.33 473.734 395.027C473.238 392.35 471.104 390.279 468.557 389.51C466.621 388.926 464.553 389.05 462.587 389.244C461.866 389.316 461.856 388.933 462.304 388.541C463.502 387.495 465.073 386.979 466.643 386.811C468.552 386.605 470.345 386.846 472.018 387.786C472.692 388.165 473.089 388.607 473.664 389.232C473.756 389.332 473.847 389.397 473.935 389.426C473.942 389.428 473.948 389.429 473.955 389.428C473.961 389.426 473.968 389.424 473.973 389.42C473.978 389.416 473.982 389.411 473.985 389.405C473.987 389.399 473.989 389.392 473.988 389.386C473.958 388.92 473.899 388.463 473.81 388.015C473.758 387.754 473.935 387.512 474.057 387.284C474.949 385.616 476.192 384.1 477.34 382.417C477.414 382.309 477.477 382.2 477.531 382.09C478.071 380.993 478.587 379.885 479.081 378.765C479.09 378.744 479.089 378.724 479.078 378.704C478.61 377.833 478.652 376.653 479.397 375.936C479.404 375.929 479.409 375.92 479.41 375.91C479.412 375.9 479.41 375.89 479.405 375.881C479.2 375.509 479.148 375.115 479.249 374.698C479.329 374.361 479.693 373.799 480.08 374.08C480.638 374.485 480.63 375.323 480.328 375.878C480.317 375.898 480.32 375.916 480.336 375.932ZM493.79 394.58C493.674 392.946 492.663 391.412 491.083 390.882C489.141 390.23 486.677 391.505 485.317 392.851C485.301 392.867 485.292 392.886 485.291 392.909C485.232 393.873 485.213 394.837 485.235 395.803C485.289 398.185 485.954 400.628 486.956 402.781C486.967 402.805 486.979 402.806 486.991 402.783C487.692 401.516 488.72 400.546 489.924 399.779C490.423 399.461 491.16 399.148 491.615 398.872C492.08 398.588 492.516 398.162 492.922 397.592C493.578 396.673 493.867 395.669 493.79 394.58Z" fill="white"/>
  </g>
  <path d="M461.522 451.5V441.7H462.796V446.138L467.08 441.7H468.774L464.994 445.592L469.18 451.5H467.64L464.098 446.488L462.796 447.832V451.5H461.522ZM474.488 446.908C474.488 446.423 474.329 446.04 474.012 445.76C473.704 445.471 473.289 445.326 472.766 445.326C472.281 445.326 471.879 445.461 471.562 445.732C471.245 446.003 471.063 446.376 471.016 446.852L469.91 446.642C470.013 445.942 470.325 445.382 470.848 444.962C471.38 444.542 472.019 444.332 472.766 444.332C473.634 444.332 474.334 444.57 474.866 445.046C475.398 445.522 475.664 446.166 475.664 446.978V451.5H474.488V450.296C474.283 450.697 473.965 451.019 473.536 451.262C473.116 451.495 472.649 451.612 472.136 451.612C471.436 451.612 470.862 451.421 470.414 451.038C469.975 450.646 469.756 450.142 469.756 449.526C469.756 448.854 470.031 448.327 470.582 447.944C471.142 447.561 471.987 447.314 473.116 447.202L474.488 447.048V446.908ZM470.946 449.512C470.946 449.839 471.072 450.109 471.324 450.324C471.585 450.529 471.917 450.632 472.318 450.632C472.999 450.632 473.531 450.422 473.914 450.002C474.297 449.582 474.488 449.017 474.488 448.308V447.972L473.116 448.126C472.407 448.201 471.865 448.359 471.492 448.602C471.128 448.835 470.946 449.139 470.946 449.512ZM481.729 445.606C481.467 445.494 481.164 445.438 480.819 445.438C480.221 445.438 479.731 445.727 479.349 446.306C478.975 446.875 478.789 447.711 478.789 448.812V451.5H477.599V444.444H478.789V445.872C478.994 445.424 479.302 445.055 479.713 444.766C480.123 444.477 480.548 444.332 480.987 444.332C481.295 444.332 481.565 444.374 481.799 444.458L481.729 445.606ZM487.066 446.908C487.066 446.423 486.907 446.04 486.59 445.76C486.282 445.471 485.867 445.326 485.344 445.326C484.859 445.326 484.457 445.461 484.14 445.732C483.823 446.003 483.641 446.376 483.594 446.852L482.488 446.642C482.591 445.942 482.903 445.382 483.426 444.962C483.958 444.542 484.597 444.332 485.344 444.332C486.212 444.332 486.912 444.57 487.444 445.046C487.976 445.522 488.242 446.166 488.242 446.978V451.5H487.066V450.296C486.861 450.697 486.543 451.019 486.114 451.262C485.694 451.495 485.227 451.612 484.714 451.612C484.014 451.612 483.44 451.421 482.992 451.038C482.553 450.646 482.334 450.142 482.334 449.526C482.334 448.854 482.609 448.327 483.16 447.944C483.72 447.561 484.565 447.314 485.694 447.202L487.066 447.048V446.908ZM483.524 449.512C483.524 449.839 483.65 450.109 483.902 450.324C484.163 450.529 484.495 450.632 484.896 450.632C485.577 450.632 486.109 450.422 486.492 450.002C486.875 449.582 487.066 449.017 487.066 448.308V447.972L485.694 448.126C484.985 448.201 484.443 448.359 484.07 448.602C483.706 448.835 483.524 449.139 483.524 449.512ZM490.177 451.5V441.588H491.381V447.314L494.643 444.444H496.225L493.201 447.23L496.463 451.5H494.979L492.319 448.028L491.381 448.882V451.5H490.177Z" fill="#202020"/>
  </g>
  </g>
  <defs>
  <radialGradient id="paint0_radial_3838_2648" cx="0" cy="0" r="1" gradientUnits="userSpaceOnUse" gradientTransform="translate(393 318) rotate(90) scale(352 377.121)">
  <stop offset="0.105" stop-color="white"/>
  <stop offset="1" stop-color="white" stop-opacity="0"/>
  </radialGradient>
  <radialGradient id="paint1_radial_3838_2648" cx="0" cy="0" r="1" gradientUnits="userSpaceOnUse" gradientTransform="translate(478.952 203.169) rotate(90) scale(57.5586 40.5154)">
  <stop offset="0.03125" stop-color="#3A3A3A"/>
  <stop offset="1" stop-color="#1C1C1C"/>
  </radialGradient>
  <linearGradient id="paint2_linear_3838_2648" x1="478.89" y1="194.685" x2="478.89" y2="250.314" gradientUnits="userSpaceOnUse">
  <stop stop-color="white"/>
  <stop offset="1" stop-color="#111111"/>
  </linearGradient>
  <linearGradient id="paint3_linear_3838_2648" x1="308.62" y1="374.862" x2="294.439" y2="410.737" gradientUnits="userSpaceOnUse">
  <stop stop-color="#03D1CF" stop-opacity="0.988"/>
  <stop offset="1" stop-color="#4E09F8"/>
  </linearGradient>
  <clipPath id="clip0_3838_2648">
  <rect width="785" height="636" rx="24" fill="white"/>
  </clipPath>
  <clipPath id="clip1_3838_2648">
  <rect width="785" height="636" rx="24" fill="white"/>
  </clipPath>
  <clipPath id="clip2_3838_2648">
  <rect width="56" height="56" fill="white" transform="translate(451 194.5)"/>
  </clipPath>
  <clipPath id="clip3_3838_2648">
  <rect width="34" height="40" fill="white" transform="translate(462 374.004)"/>
  </clipPath>
  </defs>
  </svg>
  