<svg width="1440" height="216" viewBox="0 0 1440 216" fill="none" xmlns="http://www.w3.org/2000/svg">
<path d="M24.8 215.388C11.2 215.388 -1.5 212.588 -13.3 206.988C-25.1 201.188 -34.8 193.288 -42.4 183.288C-50 173.288 -54.6 161.988 -56.2 149.388L-19.9 138.288C-18.3 150.688 -13.2 160.888 -4.6 168.888C4.2 176.688 14.5 180.588 26.3 180.588C37.3 180.588 46.1 178.188 52.7 173.388C59.3 168.588 62.6 162.188 62.6 154.188C62.6 147.988 60.6 142.888 56.6 138.888C52.8 134.888 47.9 131.688 41.9 129.288C35.9 126.888 27.8 124.188 17.6 121.188C3.6 116.988 -7.8 112.888 -16.6 108.888C-25.4 104.688 -33 98.4883 -39.4 90.2883C-45.6 82.0883 -48.7 71.3883 -48.7 58.1883C-48.7 47.1883 -45.5 37.2883 -39.1 28.4883C-32.7 19.6883 -24 12.8883 -13 8.08827C-1.8 3.08828 10.6 0.58828 24.2 0.58828C37.4 0.58828 49.5 2.78828 60.5 7.18827C71.5 11.5883 80.6 17.8883 87.8 26.0883C95.2 34.0883 100 43.2883 102.2 53.6883L65.6 68.6883C63.4 58.4883 58.6 50.3883 51.2 44.3883C44 38.3883 35 35.3883 24.2 35.3883C14.2 35.3883 6.3 37.4883 0.500001 41.6883C-5.3 45.6883 -8.2 51.1883 -8.2 58.1883C-8.2 62.9883 -6.5 66.8883 -3.1 69.8883C0.300004 72.8883 4.5 75.2883 9.5 77.0883C14.5 78.8883 21.8 81.0883 31.4 83.6883C46.2 87.2883 58.5 91.2883 68.3 95.6883C78.1 99.8883 86.5 106.588 93.5 115.788C100.5 124.988 104 137.488 104 153.288C104 165.488 100.7 176.288 94.1 185.688C87.5 195.088 78.2 202.388 66.2 207.588C54.2 212.788 40.4 215.388 24.8 215.388ZM189.346 215.388C174.346 215.388 160.846 212.088 148.846 205.488C136.846 198.688 127.446 189.388 120.646 177.588C113.846 165.588 110.446 152.188 110.446 137.388C110.446 122.588 113.846 109.288 120.646 97.4883C127.446 85.4883 136.846 76.1883 148.846 69.5883C160.846 62.7883 174.346 59.3883 189.346 59.3883C204.346 59.3883 217.846 62.7883 229.846 69.5883C241.846 76.1883 251.246 85.4883 258.046 97.4883C264.846 109.288 268.246 122.588 268.246 137.388C268.246 152.188 264.846 165.588 258.046 177.588C251.246 189.388 241.846 198.688 229.846 205.488C217.846 212.088 204.346 215.388 189.346 215.388ZM148.546 137.388C148.546 150.988 152.246 161.988 159.646 170.388C167.246 178.588 177.146 182.688 189.346 182.688C201.546 182.688 211.346 178.488 218.746 170.088C226.346 161.688 230.146 150.788 230.146 137.388C230.146 123.988 226.346 113.088 218.746 104.688C211.346 96.2883 201.546 92.0883 189.346 92.0883C177.146 92.0883 167.246 96.2883 159.646 104.688C152.246 112.888 148.546 123.788 148.546 137.388ZM283.671 0.58828H321.471V212.988H283.671V0.58828ZM329.185 61.7883H367.285L401.785 169.188L436.285 61.7883H474.685L419.485 212.988H384.385L329.185 61.7883ZM483.878 2.98827H626.078V38.0883H524.678V86.6883H606.578V122.088H524.678V212.988H483.878V2.98827ZM641.058 61.7883H678.858V212.988H641.058V61.7883ZM680.658 0.58828V39.5883H639.858V0.58828H680.658ZM702.472 61.7883H740.272V84.5883C745.272 76.9883 751.872 70.8883 760.072 66.2883C768.472 61.6883 777.872 59.3883 788.272 59.3883C804.872 59.3883 818.172 64.3883 828.172 74.3883C838.372 84.3883 843.472 97.5883 843.472 113.988V212.988H805.672V122.988C805.672 113.988 803.072 106.788 797.872 101.388C792.672 95.7883 785.672 92.9883 776.872 92.9883C765.272 92.9883 756.272 97.6883 749.872 107.088C743.472 116.488 740.272 129.688 740.272 146.688V212.988H702.472V61.7883ZM955.211 115.788C955.211 107.188 952.511 100.488 947.111 95.6883C941.711 90.6883 934.411 88.1883 925.211 88.1883C917.011 88.1883 910.111 90.5883 904.511 95.3883C899.111 100.188 896.011 106.588 895.211 114.588L861.611 108.588C864.011 93.7883 871.111 81.8883 882.911 72.8883C894.911 63.8883 909.011 59.3883 925.211 59.3883C945.411 59.3883 961.511 64.7883 973.511 75.5883C985.711 86.1883 991.811 101.288 991.811 120.888V212.988H955.211V191.088C951.011 198.488 944.711 204.388 936.311 208.788C928.111 213.188 919.311 215.388 909.911 215.388C900.111 215.388 891.411 213.488 883.811 209.688C876.211 205.688 870.211 200.288 865.811 193.488C861.611 186.688 859.511 178.988 859.511 170.388C859.511 155.588 865.111 144.088 876.311 135.888C887.511 127.688 904.411 122.388 927.011 119.988L955.211 117.288V115.788ZM896.111 169.188C896.111 174.588 898.111 178.988 902.111 182.388C906.111 185.788 911.511 187.488 918.311 187.488C929.711 187.488 938.711 183.688 945.311 176.088C951.911 168.488 955.211 158.988 955.211 147.588V144.288L926.411 147.588C916.611 148.788 909.111 151.288 903.911 155.088C898.711 158.888 896.111 163.588 896.111 169.188ZM1015.73 61.7883H1053.53V84.5883C1058.53 76.9883 1065.13 70.8883 1073.33 66.2883C1081.73 61.6883 1091.13 59.3883 1101.53 59.3883C1118.13 59.3883 1131.43 64.3883 1141.43 74.3883C1151.63 84.3883 1156.73 97.5883 1156.73 113.988V212.988H1118.93V122.988C1118.93 113.988 1116.33 106.788 1111.13 101.388C1105.93 95.7883 1098.93 92.9883 1090.13 92.9883C1078.53 92.9883 1069.53 97.6883 1063.13 107.088C1056.73 116.488 1053.53 129.688 1053.53 146.688V212.988H1015.73V61.7883ZM1248.97 215.388C1233.97 215.388 1220.67 212.088 1209.07 205.488C1197.47 198.888 1188.37 189.688 1181.77 177.888C1175.37 166.088 1172.17 152.588 1172.17 137.388C1172.17 122.188 1175.37 108.688 1181.77 96.8883C1188.37 85.0883 1197.47 75.8883 1209.07 69.2883C1220.67 62.6883 1233.97 59.3883 1248.97 59.3883C1268.37 59.3883 1284.37 64.0883 1296.97 73.4883C1309.77 82.8883 1317.47 95.5883 1320.07 111.588L1283.17 118.788C1281.77 110.788 1278.07 104.388 1272.07 99.5883C1266.27 94.5883 1258.97 92.0883 1250.17 92.0883C1238.37 92.0883 1228.97 96.1883 1221.97 104.388C1214.97 112.588 1211.47 123.588 1211.47 137.388C1211.47 151.188 1214.97 162.188 1221.97 170.388C1228.97 178.588 1238.37 182.688 1250.17 182.688C1258.97 182.688 1266.17 180.488 1271.77 176.088C1277.57 171.488 1281.37 165.088 1283.17 156.888L1320.07 164.388C1317.27 180.188 1309.47 192.688 1296.67 201.888C1284.07 210.888 1268.17 215.388 1248.97 215.388ZM1327.33 137.388C1327.33 123.788 1330.13 111.088 1335.73 99.2883C1341.53 87.2883 1350.03 77.6883 1361.23 70.4883C1372.43 63.0883 1386.03 59.3883 1402.03 59.3883C1418.23 59.3883 1432.03 62.8883 1443.43 69.8883C1454.83 76.8883 1463.43 85.9883 1469.23 97.1883C1475.03 108.388 1477.93 120.088 1477.93 132.288C1477.93 138.288 1477.73 143.288 1477.33 147.288H1365.13C1366.73 158.688 1371.03 167.588 1378.03 173.988C1385.03 180.388 1393.93 183.588 1404.73 183.588C1413.53 183.588 1420.93 181.588 1426.93 177.588C1432.93 173.588 1436.93 167.888 1438.93 160.488L1474.33 170.088C1470.13 184.288 1461.83 195.388 1449.43 203.388C1437.03 211.388 1421.93 215.388 1404.13 215.388C1388.13 215.388 1374.33 211.788 1362.73 204.588C1351.13 197.188 1342.33 187.488 1336.33 175.488C1330.33 163.488 1327.33 150.788 1327.33 137.388ZM1437.43 119.688C1436.43 110.288 1432.93 102.688 1426.93 96.8883C1420.93 91.0883 1412.63 88.1883 1402.03 88.1883C1392.63 88.1883 1384.73 90.8883 1378.33 96.2883C1372.13 101.688 1368.03 109.488 1366.03 119.688H1437.43Z" fill="#F2F2F2"/>
</svg>
