<svg width="375" height="712" viewBox="0 0 375 712" fill="none" xmlns="http://www.w3.org/2000/svg">
  <mask id="mask0_2209_382" style="mask-type:alpha" maskUnits="userSpaceOnUse" x="0" y="0" width="375" height="712">
    <rect width="375" height="712" fill="#D9D9D9" />
  </mask>
  <g mask="url(#mask0_2209_382)">
    <g opacity="0.6" filter="url(#filter0_f_2209_382)">
      <ellipse cx="176.086" cy="501.453" rx="356.228" ry="101.306" transform="rotate(40.5086 176.086 501.453)"
        fill="white" />
    </g>
    <g filter="url(#filter1_f_2209_382)">
      <circle cx="480" cy="176" r="360" fill="#EFE9FA" />
      <circle cx="480" cy="176" r="360" fill="#8F4AFF" fill-opacity="0.05" />
    </g>
    <g filter="url(#filter2_f_2209_382)">
      <circle cx="56.5" cy="667.5" r="225.5" fill="#EFE9FA" />
      <circle cx="56.5" cy="667.5" r="225.5" fill="#8F4AFF" fill-opacity="0.05" />
    </g>
    <path
      d="M403.656 -31.5083L92.1381 280.009C67.6858 304.462 67.6858 344.107 92.1381 368.559C116.59 393.011 156.236 393.011 180.688 368.559L492.205 57.0415C516.658 32.5891 516.658 -7.0559 492.205 -31.5082C467.753 -55.9606 428.108 -55.9606 403.656 -31.5083Z"
      fill="#E1D3F9" />
    <path
      d="M403.656 -31.5083L92.1381 280.009C67.6858 304.462 67.6858 344.107 92.1381 368.559C116.59 393.011 156.236 393.011 180.688 368.559L492.205 57.0415C516.658 32.5891 516.658 -7.0559 492.205 -31.5082C467.753 -55.9606 428.108 -55.9606 403.656 -31.5083Z"
      fill="url(#paint0_linear_2209_382)" />
    <path
      d="M623.148 267.658L311.63 579.176C287.178 603.628 287.178 643.273 311.63 667.726C336.083 692.178 375.728 692.178 400.18 667.726L711.698 356.208C736.15 331.756 736.15 292.111 711.698 267.658C687.245 243.206 647.6 243.206 623.148 267.658Z"
      fill="#E1D3F9" />
    <path
      d="M623.148 267.658L311.63 579.176C287.178 603.628 287.178 643.273 311.63 667.726C336.083 692.178 375.728 692.178 400.18 667.726L711.698 356.208C736.15 331.756 736.15 292.111 711.698 267.658C687.245 243.206 647.6 243.206 623.148 267.658Z"
      fill="url(#paint1_linear_2209_382)" />
    <path
      d="M222.191 -109.834L-89.3267 201.684C-113.779 226.136 -113.779 265.781 -89.3267 290.233C-64.8744 314.686 -25.2293 314.686 -0.776968 290.233L310.741 -21.2842C335.193 -45.7365 335.193 -85.3816 310.741 -109.834C286.288 -134.286 246.643 -134.286 222.191 -109.834Z"
      fill="#E1D3F9" />
    <path
      d="M222.191 -109.834L-89.3267 201.684C-113.779 226.136 -113.779 265.781 -89.3267 290.233C-64.8744 314.686 -25.2293 314.686 -0.776968 290.233L310.741 -21.2842C335.193 -45.7365 335.193 -85.3816 310.741 -109.834C286.288 -134.286 246.643 -134.286 222.191 -109.834Z"
      fill="url(#paint2_linear_2209_382)" />
    <path
      d="M407.792 223.275L96.2749 534.793C71.8225 559.245 71.8225 598.89 96.2749 623.342C120.727 647.795 160.372 647.795 184.825 623.342L496.342 311.825C520.795 287.372 520.794 247.727 496.342 223.275C471.89 198.823 432.245 198.823 407.792 223.275Z"
      fill="#E1D3F9" />
    <path
      d="M407.792 223.275L96.2749 534.793C71.8225 559.245 71.8225 598.89 96.2749 623.342C120.727 647.795 160.372 647.795 184.825 623.342L496.342 311.825C520.795 287.372 520.794 247.727 496.342 223.275C471.89 198.823 432.245 198.823 407.792 223.275Z"
      fill="url(#paint3_linear_2209_382)" />
    <path
      d="M120.792 -268.725L-190.725 42.7925C-215.177 67.2449 -215.177 106.89 -190.725 131.342C-166.273 155.795 -126.628 155.795 -102.175 131.342L209.342 -180.175C233.795 -204.628 233.794 -244.273 209.342 -268.725C184.89 -293.177 145.245 -293.177 120.792 -268.725Z"
      fill="#E1D3F9" />
    <path
      d="M120.792 -268.725L-190.725 42.7925C-215.177 67.2449 -215.177 106.89 -190.725 131.342C-166.273 155.795 -126.628 155.795 -102.175 131.342L209.342 -180.175C233.795 -204.628 233.794 -244.273 209.342 -268.725C184.89 -293.177 145.245 -293.177 120.792 -268.725Z"
      fill="url(#paint4_linear_2209_382)" />
  </g>
  <defs>
    <filter id="filter0_f_2209_382" x="-302.701" y="57.5122" width="957.574" height="887.882"
      filterUnits="userSpaceOnUse" color-interpolation-filters="sRGB">
      <feFlood flood-opacity="0" result="BackgroundImageFix" />
      <feBlend mode="normal" in="SourceGraphic" in2="BackgroundImageFix" result="shape" />
      <feGaussianBlur stdDeviation="100" result="effect1_foregroundBlur_2209_382" />
    </filter>
    <filter id="filter1_f_2209_382" x="-430" y="-734" width="1820" height="1820" filterUnits="userSpaceOnUse"
      color-interpolation-filters="sRGB">
      <feFlood flood-opacity="0" result="BackgroundImageFix" />
      <feBlend mode="normal" in="SourceGraphic" in2="BackgroundImageFix" result="shape" />
      <feGaussianBlur stdDeviation="275" result="effect1_foregroundBlur_2209_382" />
    </filter>
    <filter id="filter2_f_2209_382" x="-469" y="142" width="1051" height="1051" filterUnits="userSpaceOnUse"
      color-interpolation-filters="sRGB">
      <feFlood flood-opacity="0" result="BackgroundImageFix" />
      <feBlend mode="normal" in="SourceGraphic" in2="BackgroundImageFix" result="shape" />
      <feGaussianBlur stdDeviation="150" result="effect1_foregroundBlur_2209_382" />
    </filter>
    <linearGradient id="paint0_linear_2209_382" x1="349.926" y1="107.274" x2="89.2864" y2="364.803"
      gradientUnits="userSpaceOnUse">
      <stop stop-color="white" stop-opacity="0.6" />
      <stop offset="1" stop-color="white" stop-opacity="0.1" />
    </linearGradient>
    <linearGradient id="paint1_linear_2209_382" x1="528.042" y1="437.327" x2="473.509" y2="490.202"
      gradientUnits="userSpaceOnUse">
      <stop stop-color="white" stop-opacity="0.6" />
      <stop offset="1" stop-color="white" stop-opacity="0.1" />
    </linearGradient>
    <linearGradient id="paint2_linear_2209_382" x1="-32.5588" y1="243.174" x2="-82.9449" y2="294.39"
      gradientUnits="userSpaceOnUse">
      <stop stop-color="white" stop-opacity="0.6" />
      <stop offset="1" stop-color="white" stop-opacity="0.1" />
    </linearGradient>
    <linearGradient id="paint3_linear_2209_382" x1="354.338" y1="367.306" x2="90.7956" y2="619.444"
      gradientUnits="userSpaceOnUse">
      <stop stop-color="white" stop-opacity="0.6" />
      <stop offset="0.913939" stop-color="white" stop-opacity="0.1" />
    </linearGradient>
    <linearGradient id="paint4_linear_2209_382" x1="-133.957" y1="84.2833" x2="-184.343" y2="135.499"
      gradientUnits="userSpaceOnUse">
      <stop stop-color="white" stop-opacity="0.6" />
      <stop offset="1" stop-color="white" stop-opacity="0.1" />
    </linearGradient>
  </defs>
</svg>