<svg width="114" height="52" viewBox="0 0 114 52" fill="none" xmlns="http://www.w3.org/2000/svg">
<path d="M0.572266 9.49219H6.63484V36.1484H0.572266V9.49219Z" fill="#FF604B"/>
<path d="M17.3496 14.5391H23.4122V34.8947H17.3496V14.5391Z" fill="#FF604B"/>
<path d="M78.4785 15.5488H84.5411V35.743H78.4785V15.5488Z" fill="#FF604B"/>
<path d="M32.5039 14.5391H38.5665V34.8947H32.5039V14.5391Z" fill="#FF604B"/>
<path d="M93.6328 25.6465H99.6954V29.6853H93.6328V25.6465Z" fill="#FF604B"/>
<path d="M47.2559 15.5488H53.3184V19.5877H47.2559V15.5488Z" fill="#FF604B"/>
<path d="M62.4141 25.6465H68.4766V29.6853H62.4141V25.6465Z" fill="#FF604B"/>
<path d="M17.3496 15.5504V9.49219H38.5686V15.5504H17.3496Z" fill="#FF604B"/>
<path d="M78.4785 15.5504V9.49219H99.6975V15.5504H78.4785Z" fill="#FF604B"/>
<path d="M47.2559 15.5504V9.49219H68.4749V15.5504H47.2559Z" fill="#FF604B"/>
<path d="M47.2559 25.6461V19.5879H68.4749V25.6461H47.2559Z" fill="#FF604B"/>
<path d="M47.2559 35.7438V29.6855H68.4749V35.7438H47.2559Z" fill="#FF604B"/>
<path d="M88.584 25.6461V19.5879H99.6987V25.6461H88.584Z" fill="#FF604B"/>
<path d="M17.3496 36.1481V30.0898H38.5686V36.1481H17.3496Z" fill="#FF604B"/>
<path d="M78.4785 35.7438V29.6855H99.6975V35.7438H78.4785Z" fill="#FF604B"/>
<path d="M10.2989 40.6816H8.72842L5.46049 50.4943H5.42876L2.19256 40.6816H0.558594L4.55626 52.0003H6.26954L10.2989 40.6816ZM15.1585 52.0003H23.0269V50.7321H16.6655V46.8165H22.551V45.5483H16.6655V41.9498H22.9793V40.6816H15.1585V52.0003ZM31.892 47.3792V46.0556H33.2166V47.3792H31.892ZM30.5714 46.0556V44.7358H31.892V46.0556H30.5714ZM27.9261 52.0003V40.7727H29.2506V43.4161H30.5714V44.7358H29.2506V52.0003H27.9261ZM34.5373 52.0003V48.6989H33.2166V47.3792H34.5373V40.7727H35.8579V52.0003H34.5373ZM43.9723 52.0003H45.4793V41.9498H49.2549V40.6816H40.1967V41.9498H43.9723V52.0003ZM54.9059 52.0003V50.6805H60.1925V52.0003H54.9059ZM53.5814 50.6805V40.7727H54.9059V50.6805H53.5814ZM60.1925 50.6805V40.7727H61.5132V50.6805H60.1925ZM73.0898 52.0003V50.6805H74.4106V52.0003H73.0898ZM71.7692 50.6805V49.3608H73.0898V50.6805H71.7692ZM70.4446 49.3608V48.0372H71.7692V49.3608H70.4446ZM73.0898 45.3977V42.0925H74.4106V45.3977H73.0898ZM66.4787 52.0003V40.7727H73.0898V42.0925H67.8033V45.3977H73.0898V46.7174H70.4446V48.0372H69.1239V46.7174H67.8033V52.0003H66.4787ZM79.9548 52.0003H87.823V50.7321H81.4623V46.8165H87.3471V45.5483H81.4623V41.9498H87.7755V40.6816H79.9548V52.0003ZM93.3854 52.0003V50.6805H99.3338V52.0003H93.3854ZM99.3338 50.6805V46.7174H100.654V50.6805H99.3338ZM94.0472 46.7174V45.3977H99.3338V46.7174H94.0472ZM92.7226 45.3977V42.0925H94.0472V45.3977H92.7226ZM94.0472 42.0925V40.7727H99.9956V42.0925H94.0472Z" fill="black"/>
<path d="M99.6973 9.49219H96.666V12.5213H99.6973V9.49219Z" fill="black"/>
<path d="M99.6973 19.5879H96.666V22.617H99.6973V19.5879Z" fill="black"/>
<path d="M68.4766 9.49219H65.4453V12.5213H68.4766V9.49219Z" fill="black"/>
<path d="M38.5684 30.6951V27.666H35.5371V30.6951H38.5684Z" fill="black"/>
<path d="M96.6641 12.5195H93.6328V15.5487H96.6641V12.5195Z" fill="black"/>
<path d="M96.6641 22.6172H93.6328V25.6463H96.6641V22.6172Z" fill="black"/>
<path d="M65.4454 12.5195H62.4141V15.5487H65.4454V12.5195Z" fill="black"/>
<path d="M93.6368 9.49219H90.6055V12.5213H93.6368V9.49219Z" fill="black"/>
<path d="M38.5684 24.6365V21.6074H35.5371V24.6365H38.5684Z" fill="black"/>
<path d="M6.63867 24.6365V21.6074H3.60738V24.6365H6.63867Z" fill="black"/>
<path d="M59.3809 12.5195H56.3496V15.5487H59.3809V12.5195Z" fill="black"/>
<path d="M53.2168 12.5195H50.1855V15.5487H53.2168V12.5195Z" fill="black"/>
<path d="M62.4121 9.49219H59.3809V12.5213H62.4121V9.49219Z" fill="black"/>
<path d="M3.60547 21.6072V18.5781H0.574181V21.6072H3.60547Z" fill="black"/>
<path d="M84.543 12.5195H81.5117V15.5487H84.543V12.5195Z" fill="black"/>
<path d="M90.6036 12.5195H87.5723V15.5487H90.6036V12.5195Z" fill="black"/>
<path d="M93.6368 19.6895H90.6055V22.7186H93.6368V19.6895Z" fill="black"/>
<path d="M99.6973 25.6465H96.666V28.6756H99.6973V25.6465Z" fill="black"/>
<path d="M23.4102 15.5487V12.5195H20.3789V15.5487H23.4102Z" fill="black"/>
<path d="M26.4434 12.5213V9.49219H23.4121V12.5213H26.4434Z" fill="black"/>
<path d="M29.4707 15.5487V12.5195H26.4394V15.5487H29.4707Z" fill="black"/>
<path d="M35.5352 15.5487V12.5195H32.5039V15.5487H35.5352Z" fill="black"/>
<path d="M38.5684 18.5779V15.5488H35.5371V18.5779H38.5684Z" fill="black"/>
<path d="M35.5352 21.6072V18.5781H32.5039V21.6072H35.5352Z" fill="black"/>
<path d="M35.5352 27.7674V24.7383H32.5039V27.7674H35.5352Z" fill="black"/>
<path d="M20.377 12.5213V9.49219H17.3457V12.5213H20.377Z" fill="black"/>
<path d="M68.4766 22.7188H65.4453V25.7479H68.4766V22.7188Z" fill="black"/>
<path d="M62.4121 22.6172H59.3809V25.6463H62.4121V22.6172Z" fill="black"/>
<path d="M65.4454 25.6465H62.4141V28.6756H65.4454V25.6465Z" fill="black"/>
<path d="M68.4766 28.6758H65.4453V31.7049H68.4766V28.6758Z" fill="black"/>
<path d="M87.5704 9.49219H84.5391V12.5213H87.5704V9.49219Z" fill="black"/>
<path d="M56.3516 9.49219H53.3203V12.5213H56.3516V9.49219Z" fill="black"/>
<path d="M6.63867 18.5779V15.5488H3.60738V18.5779H6.63867Z" fill="black"/>
<path d="M3.60547 15.5487V12.5195H0.574181V15.5487H3.60547Z" fill="black"/>
<path d="M50.2871 9.49219H47.2559V12.5213H50.2871V9.49219Z" fill="black"/>
<path d="M38.5684 12.5213V9.49219H35.5371V12.5213H38.5684Z" fill="black"/>
<path d="M6.63867 12.5213V9.49219H3.60738V12.5213H6.63867Z" fill="black"/>
<path d="M32.5039 12.5213V9.49219H29.4726V12.5213H32.5039Z" fill="black"/>
<path d="M65.4454 19.6895H62.4141V22.7186H65.4454V19.6895Z" fill="black"/>
<path d="M59.3809 19.5879H56.3496V22.617H59.3809V19.5879Z" fill="black"/>
<path d="M54.7344 0H51.7031V3.02912H54.7344V0Z" fill="#FF604B"/>
<path d="M47.1563 3.43359H44.125V6.46271H47.1563V3.43359Z" fill="#FF604B"/>
<path d="M12.295 0.404297H9.26367V3.43342H12.295V0.404297Z" fill="#FF604B"/>
<path d="M66.8594 1.91797H63.8281V4.94709H66.8594V1.91797Z" fill="#FF604B"/>
<path d="M106.77 18.0742H103.738V21.1033H106.77V18.0742Z" fill="#FF604B"/>
<path d="M113.441 27.3633H110.41V30.3924H113.441V27.3633Z" fill="#FF604B"/>
<path d="M105.859 32.5117H102.828V35.5408H105.859V32.5117Z" fill="#FF604B"/>
</svg>
