<svg width="155" height="40" viewBox="0 0 155 40" fill="none" xmlns="http://www.w3.org/2000/svg">
<path d="M31.8425 12.555L27.7453 16.6083L20.309 8.99238L12.9757 16.3805L8.73828 12.0532L20.0746 0.679688L31.8425 12.555Z" fill="#F0B90B"/>
<path d="M8.69727 27.5786L12.7419 23.4727L20.0511 31.1346C23.0046 28.6084 25.2788 25.885 27.8357 23.5537L31.8584 27.7166C28.0746 31.5071 24.1461 35.475 20.325 39.3202L8.69727 27.5786Z" fill="#F0B90B"/>
<path d="M59.0515 11.7845L60.2171 12.5995C60.7846 12.9764 61.2403 13.5 61.5361 14.1179C61.8319 14.7336 61.9589 15.4193 61.902 16.1029C61.845 16.7865 61.6062 17.4395 61.2096 17.9982C60.8152 18.5547 60.2784 18.9951 59.6562 19.2711C58.9113 19.6414 58.1006 19.8627 57.2724 19.9219C54.6256 20.0029 51.9679 19.9525 49.2051 19.9525V4.6089C52.2506 4.58918 55.3202 4.21014 58.3087 5.04272C61.1286 5.82272 61.9305 8.98873 59.987 11.1973C59.7898 11.4186 59.459 11.5237 59.0515 11.7845ZM52.2528 17.1546C54.0384 17.0341 55.7277 17.4132 57.4148 16.9049C57.7763 16.8282 58.0984 16.6244 58.3219 16.3286C58.5454 16.0328 58.6571 15.6647 58.6352 15.2945C58.6461 15.0951 58.6155 14.8957 58.5497 14.7073C58.4818 14.5188 58.3788 14.3479 58.2452 14.199C58.1115 14.0522 57.9494 13.9338 57.7697 13.8506C57.5901 13.7673 57.3951 13.7213 57.1979 13.7147C55.5634 13.6052 53.9114 13.6841 52.2506 13.6841V17.1546H52.2528ZM52.2133 10.7985C53.6572 10.8796 55.0923 11.0132 56.5077 10.7284C56.878 10.678 57.2154 10.494 57.4586 10.2069C57.7018 9.9221 57.8311 9.5562 57.8223 9.17935C57.8464 8.83098 57.7413 8.48699 57.5309 8.21311C57.3206 7.93704 57.016 7.75081 56.6764 7.68508C55.2106 7.33232 53.6835 7.31699 52.2133 7.64345V10.7985Z" fill="#F0B90B"/>
<path d="M108.43 4.62695H111.19L118.127 13.7416L118.519 13.6123V4.65982H121.591V19.8238H118.894L111.876 10.6237L111.46 10.7377C111.293 12.2013 111.405 13.6846 111.388 15.1613C111.368 16.6359 111.388 18.1981 111.388 19.8347H108.436L108.43 4.62695Z" fill="#F0B90B"/>
<path d="M76.7455 10.6248V19.8183H73.6387V4.6543H76.5089C78.9081 7.61216 81.0487 10.8176 83.5267 13.7492L83.84 13.598V4.68278H86.822V19.8249H84.2125L77.1421 10.5218L76.7455 10.6248Z" fill="#F0B90B"/>
<path d="M141.908 19.8144V4.65039H153.249V7.58415H145.32V10.8159H152.313V13.5853H145.32V17.0603H153.236V19.8034L141.908 19.8144Z" fill="#F0B90B"/>
<path d="M105.59 19.8999H102.316L100.846 16.5236H94.2927L92.851 19.8692H89.6719C91.8651 14.6941 93.9794 9.65255 96.1091 4.5957H99.1305L105.59 19.8999ZM95.5175 13.5153C97.0315 13.7147 98.2584 13.8308 99.6213 13.4277L97.7611 8.91638H97.3886L95.5175 13.5153Z" fill="#F0B90B"/>
<path d="M138.745 6.72851C138.653 6.93228 138.541 7.12509 138.414 7.30694C137.932 7.85688 137.43 8.38711 136.898 8.96554C135.472 8.01683 134.063 7.04183 132.281 7.38582C131.193 7.58301 130.218 8.17677 129.536 9.05317C128.813 10.0172 128.434 11.2004 128.46 12.4098C128.487 13.6192 128.918 14.7827 129.683 15.716C131.405 17.7164 133.629 17.6814 137.051 15.5824C137.365 15.8738 137.724 16.174 138.055 16.496C138.383 16.8181 138.622 17.0964 138.89 17.3878C136.911 20.5275 131.269 21.2067 128.013 18.5249C124.525 15.6569 124.164 10.3108 127.13 6.86436C129.933 3.61071 136.582 3.77503 138.745 6.72851Z" fill="#F0B90B"/>
<path d="M49.1934 30.5854V29.2773H108.136C108.171 29.6717 108.204 30.0639 108.252 30.5854H49.1934Z" fill="#F0B90B"/>
<path d="M135.393 24.7158C137.273 24.7158 139.024 24.7005 140.787 24.7158C141.966 24.7158 142.921 25.165 143.417 26.3262C143.912 27.4896 143.568 28.458 142.702 29.3016C142.586 29.433 142.481 29.5755 142.389 29.7244C142.531 29.8712 142.685 30.0027 142.847 30.1232C143.916 30.7323 144.413 31.6766 144.197 32.8707C143.98 34.0648 143.138 34.9588 141.881 35.0815C139.773 35.305 137.65 35.397 135.389 35.5482L135.393 24.7158ZM137.144 33.8194C138.563 33.7559 139.898 33.7559 141.217 33.6135C141.554 33.5697 141.865 33.4053 142.091 33.1468C142.317 32.8883 142.442 32.5574 142.442 32.2134C142.442 31.8694 142.319 31.5364 142.091 31.2801C141.865 31.0215 141.554 30.855 141.217 30.8134C139.854 30.6929 138.476 30.7783 137.128 30.7783L137.144 33.8194ZM137.144 29.1351C138.233 29.1833 139.324 29.1745 140.41 29.1044C141.151 29.0189 141.786 28.561 141.824 27.6868C141.861 26.8126 141.326 26.2999 140.509 26.2473C139.407 26.175 138.292 26.2276 137.141 26.2276V29.1351H137.144Z" fill="#F0B90B"/>
<path d="M68.7419 4.66797V19.8626H65.8125V4.66797H68.7419Z" fill="#F0B90B"/>
<path d="M133.147 35.3692H131.352L130.182 32.7027H125.045L123.791 35.3824H122.098C123.664 31.7278 125.209 28.1761 126.778 24.5369L128.419 24.4492C129.979 28.0556 131.528 31.6313 133.147 35.3692ZM129.495 31.0222L127.575 26.5986C126.874 28.2857 126.322 29.6003 125.73 31.0222H129.495Z" fill="#F0B90B"/>
<path d="M146.211 33.8089L147.008 32.7287C147.948 33.134 148.79 33.6489 149.719 33.8702C150.646 34.0915 151.599 34.1003 152.416 33.099L152.473 31.8348C152.195 31.585 151.883 31.3725 151.553 31.2038C150.613 30.8882 149.673 30.6604 148.733 30.3405C147.138 29.7906 146.456 28.8156 146.542 27.3169C146.583 26.6289 146.859 25.976 147.324 25.4699C147.786 24.9638 148.409 24.6329 149.086 24.5343C150.77 24.2648 152.387 24.508 153.875 25.7481L153.084 26.9225C151.542 26.3441 150.052 25.1653 148.406 26.7144V28.2503C149.197 28.5658 149.997 28.8813 150.81 29.1749C151.246 29.3326 151.717 29.3808 152.151 29.5408C153.717 30.1214 154.456 31.241 154.274 32.7725C154.175 33.4539 153.853 34.0805 153.36 34.556C152.867 35.0314 152.232 35.3272 151.555 35.3973C149.638 35.6186 147.821 35.3382 146.211 33.8089Z" fill="#F0B90B"/>
<path d="M5.12685 16.0742L9.15173 20.1013L4.97348 24.1043L0.900391 19.9698L5.12685 16.0742Z" fill="#F0B90B"/>
<path d="M20.5046 15.8926L24.3608 19.775L20.1387 23.9007L16.3789 20.0708L20.5046 15.8926Z" fill="#F0B90B"/>
<path d="M35.3976 23.9952L31.5195 20.0864L35.6189 15.9805L39.4225 19.9396L35.3976 23.9952Z" fill="#F0B90B"/>
<path d="M112.817 24.8066H114.495V33.781H120.058V35.3257H112.814V24.8066H112.817Z" fill="#F0B90B"/>
</svg>
