<svg width="111" height="30" viewBox="0 0 111 30" fill="none" xmlns="http://www.w3.org/2000/svg">
<path d="M64.3213 1.25391H62.3398V3.34148H64.3213V1.25391Z" fill="black"/>
<path d="M64.3213 12.0097V4.38477H62.3398V12.0097H64.3213Z" fill="black"/>
<path d="M67.7881 12.3464V9.23272C67.7881 8.43661 67.8235 7.92356 67.8765 7.67588C67.9827 7.18053 68.0534 6.80901 68.3188 6.52595C68.5842 6.24289 68.9203 6.11905 69.2918 6.11905C69.5926 6.11905 69.7164 6.20751 69.911 6.36673C70.1056 6.52595 70.2472 6.77363 70.3356 7.09207C70.4064 7.41051 70.4595 8.0474 70.4595 9.02042V12.3287H72.4409V6.96823C72.4409 6.03059 72.2286 5.32294 71.7863 4.84528C71.2733 4.27916 70.6364 3.99609 69.8933 3.99609C69.5395 3.99609 69.1857 4.06686 68.8319 4.22608C68.4957 4.3853 68.1065 4.65067 67.6819 5.03988V4.20839H65.8066V12.3287H67.7881V12.3464Z" fill="black"/>
<path d="M77.4659 4.20898C77.9082 4.20898 78.3151 4.29744 78.7043 4.45666C79.0935 4.61588 79.4827 4.89895 79.8719 5.27046V4.40359H81.8887V11.1086C81.8887 12.4354 81.6233 13.4085 81.1103 14.0277C80.4203 14.8768 79.2527 15.3014 77.8728 15.3014C77.1297 15.3014 76.5105 15.213 75.9975 15.0184C75.4845 14.8238 75.0599 14.5407 74.7237 14.1692C74.3699 13.7977 74.1222 13.3377 73.9453 12.807H76.0506C76.2275 13.0193 76.4752 13.1962 76.7759 13.3023C77.0767 13.4085 77.4128 13.4792 77.8197 13.4792C78.3328 13.4792 78.7397 13.3908 79.0581 13.2315C79.3765 13.0723 79.5888 12.86 79.7127 12.5947C79.8365 12.3293 79.9073 11.887 79.9073 11.2501C79.5711 11.6039 79.2173 11.8516 78.8635 11.9932C78.492 12.1524 78.0851 12.2231 77.6251 12.2231C76.6167 12.2231 75.7498 11.8516 75.0422 11.0909C74.3345 10.3302 73.9984 9.37485 73.9984 8.20722C73.9984 6.96883 74.3699 5.96042 75.1129 5.21739C75.7144 4.54512 76.5282 4.20898 77.4659 4.20898ZM77.8905 5.97811C77.289 5.97811 76.7936 6.19041 76.4044 6.615C76.0152 7.03959 75.8206 7.57033 75.8206 8.20722C75.8206 8.8618 76.0152 9.41022 76.4221 9.83482C76.829 10.2594 77.3244 10.4717 77.9259 10.4717C78.5097 10.4717 79.005 10.2594 79.3942 9.85251C79.7834 9.44561 79.9604 8.89718 79.9604 8.22491C79.9604 7.57033 79.7658 7.0219 79.3765 6.615C79.005 6.17272 78.5097 5.97811 77.8905 5.97811Z" fill="black"/>
<path d="M65.3469 19.2812C66.6207 19.2812 67.6468 19.7058 68.4429 20.5196C69.239 21.3511 69.6282 22.448 69.6282 23.8102V24.1994H63.1355C63.224 24.7832 63.4716 25.2432 63.8785 25.597C64.2854 25.9509 64.7985 26.1101 65.4354 26.1101C66.1961 26.1101 66.833 25.8447 67.3814 25.2963L69.0798 26.1101C68.6552 26.7293 68.1421 27.1893 67.5583 27.4723C66.9745 27.7731 66.2669 27.9146 65.4531 27.9146C64.197 27.9146 63.1709 27.5077 62.3748 26.6939C61.5787 25.8801 61.1895 24.854 61.1895 23.6333C61.1895 22.3772 61.5787 21.3334 62.3748 20.5019C63.1532 19.7058 64.1439 19.2812 65.3469 19.2812ZM65.3646 21.1742C64.8339 21.1742 64.3739 21.3334 63.9847 21.6519C63.737 21.8465 63.507 22.2003 63.2947 22.6957H67.3991C67.2753 22.2534 67.0276 21.8819 66.6561 21.5988C66.2845 21.3157 65.86 21.1742 65.3646 21.1742Z" fill="black"/>
<path d="M81.7656 27.9499V21.9879H82.8624V20.0419H81.7656V18.0781H79.678V20.0419H78.7227V21.9879H79.678V27.9499H81.7656Z" fill="black"/>
<path d="M87.0015 27.9497C87.7622 27.9497 88.3991 27.7728 88.8945 27.4366C89.3898 27.1005 89.7614 26.6051 90.009 25.9682C90.2213 25.4375 90.3275 24.4822 90.3275 23.0669V19.6348H88.4345V23.3676C88.4345 24.1284 88.3991 24.6414 88.3107 24.8714C88.2045 25.1898 88.0453 25.4198 87.8153 25.579C87.603 25.7383 87.32 25.8267 87.0192 25.8267C86.7008 25.8267 86.4354 25.7383 86.2231 25.579C86.0108 25.4198 85.8516 25.1898 85.7631 24.8891C85.657 24.5883 85.6216 24.0576 85.6216 23.2969V19.6348H83.7109V23.0138C83.7109 24.3053 83.7817 25.2075 83.9409 25.7029C84.1532 26.4105 84.507 26.9767 85.0201 27.3659C85.4978 27.7551 86.17 27.9497 87.0015 27.9497Z" fill="black"/>
<path d="M93.5307 27.7914V24.3769V23.9877C93.5307 22.8909 93.6369 22.1478 93.8138 21.7763C94.0084 21.4048 94.2384 21.2102 94.5214 21.2102C94.663 21.2102 94.8399 21.2633 95.0522 21.3871L95.6183 19.6887C95.3529 19.5472 95.1052 19.4941 94.8752 19.4941C94.5391 19.4941 94.2384 19.6003 93.9553 19.7949C93.6722 19.9895 93.4423 20.2903 93.283 20.6795V19.6887H91.4785V27.7914H93.5307Z" fill="black"/>
<path d="M108.072 27.9499C108.921 27.9499 109.593 27.7022 110.089 27.2068C110.584 26.7115 110.849 26.11 110.849 25.3669C110.849 24.8185 110.708 24.3409 110.425 23.934C110.142 23.5271 109.629 23.1202 108.886 22.7309L108.125 22.324C107.859 22.1825 107.683 22.0587 107.612 21.9702C107.541 21.8818 107.488 21.7756 107.488 21.6695C107.488 21.5279 107.541 21.4041 107.665 21.2979C107.789 21.1918 107.966 21.1564 108.178 21.1564C108.567 21.1564 109.009 21.4218 109.505 21.9348L110.708 20.6611C110.407 20.2188 110.018 19.8826 109.593 19.6527C109.151 19.4227 108.673 19.2988 108.178 19.2988C107.453 19.2988 106.851 19.5288 106.373 19.9888C105.896 20.4488 105.666 21.0149 105.666 21.6518C105.666 22.6602 106.285 23.5094 107.541 24.1816L108.196 24.5355C108.762 24.8362 109.045 25.1547 109.045 25.4731C109.045 25.65 108.974 25.7915 108.815 25.9331C108.656 26.0569 108.461 26.1277 108.196 26.1277C107.966 26.1277 107.683 26.0392 107.382 25.8623C107.081 25.6854 106.816 25.4554 106.586 25.1723L105.4 26.5523C106.055 27.4899 106.957 27.9499 108.072 27.9499Z" fill="black"/>
<path d="M57.5981 1.42969H57.6865C58.6772 1.44738 59.4026 1.71275 59.9156 2.2258C60.4287 2.75654 60.6941 3.4465 60.6941 4.31337C60.7117 4.75565 60.6056 5.18024 60.3933 5.58714C60.2871 5.78175 60.1279 5.95866 59.9156 6.13557C59.7033 6.31248 59.4557 6.4894 59.1549 6.63093V6.66631L59.2257 6.684C59.7564 6.84323 60.1633 7.14398 60.4464 7.58626C60.7117 8.06393 60.8533 8.57697 60.8533 9.14309C60.8356 10.0807 60.5702 10.8061 60.0041 11.3545C59.4557 11.9206 58.7657 12.2037 57.9519 12.2037H53.5645V1.44738H57.5981V1.42969ZM57.3681 7.62164H55.5459V10.4169H57.3681C57.8104 10.4169 58.1288 10.2576 58.3234 9.99228C58.5357 9.72691 58.6242 9.39077 58.6242 9.01926C58.6242 8.63005 58.518 8.3116 58.3234 8.02854C58.1288 7.76317 57.8104 7.62164 57.3681 7.62164ZM57.315 3.05729H55.5459V5.85251H57.315C57.7573 5.85251 58.0934 5.71098 58.3057 5.42792C58.518 5.16255 58.6242 4.84411 58.6242 4.4549C58.6242 4.06569 58.518 3.72956 58.3057 3.44649C58.0934 3.19882 57.775 3.07498 57.315 3.05729Z" fill="black"/>
<path d="M57.3692 24.8539L55.4055 16.8574H53.3887L56.3254 27.9499L57.3692 24.8539Z" fill="black"/>
<path d="M56.4675 27.9499L56.3613 27.4899L58.8735 16.8574H60.8372L58.1128 27.9499H56.4675Z" fill="black"/>
<path d="M72.9366 27.9499V24.8362C72.9366 24.0401 72.972 23.5271 73.0251 23.2794C73.1312 22.784 73.202 22.4125 73.4674 22.1295C73.7327 21.8464 74.0689 21.7226 74.4404 21.7226C74.7411 21.7226 74.865 21.811 75.0596 21.9702C75.2542 22.1295 75.3957 22.3771 75.4842 22.6956C75.5549 23.014 75.608 23.6509 75.608 24.6239V27.9322H77.5717V22.5717C77.5717 21.6341 77.3594 20.9265 76.9172 20.4488C76.4041 19.8827 75.7672 19.5996 75.0242 19.5996C74.6704 19.5996 74.3165 19.6704 73.9627 19.8296C73.6266 19.9888 73.2374 20.2542 72.8128 20.6434V19.8119H70.9375V27.9322H72.9366V27.9499Z" fill="black"/>
<path d="M100.271 19.2812C101.545 19.2812 102.571 19.7058 103.367 20.5196C104.163 21.3511 104.552 22.448 104.552 23.8102V24.1994H98.0593C98.1478 24.7832 98.3955 25.2432 98.8024 25.597C99.2093 25.9509 99.7223 26.1101 100.359 26.1101C101.12 26.1101 101.757 25.8447 102.305 25.2963L104.004 26.1101C103.579 26.7293 103.066 27.1893 102.482 27.4723C101.898 27.7554 101.191 27.9146 100.377 27.9146C99.1208 27.9146 98.0947 27.5077 97.2986 26.6939C96.5025 25.8801 96.1133 24.854 96.1133 23.6333C96.1133 22.3772 96.5025 21.3334 97.2986 20.5019C98.0947 19.7058 99.0854 19.2812 100.271 19.2812ZM100.306 21.1742C99.7754 21.1742 99.3154 21.3334 98.9262 21.6519C98.6785 21.8465 98.4485 22.2003 98.2362 22.6957H102.341C102.217 22.2534 101.969 21.8819 101.598 21.5988C101.226 21.3157 100.801 21.1742 100.306 21.1742Z" fill="black"/>
<path d="M14.1842 29.312C21.8268 29.312 28.0188 22.9078 28.0188 14.9998C28.0188 7.09175 21.8268 0.6875 14.1842 0.6875C6.54156 0.6875 0.349609 7.09175 0.349609 14.9998C0.349609 22.9078 6.54156 29.312 14.1842 29.312Z" fill="#F19E39"/>
<path d="M30.903 29.312C38.5456 29.312 44.7376 22.9078 44.7376 14.9998C44.7376 7.09175 38.5456 0.6875 30.903 0.6875C23.2603 0.6875 17.0684 7.09175 17.0684 14.9998C17.0861 22.9078 23.278 29.312 30.903 29.312Z" fill="#371E1E"/>
<path fill-rule="evenodd" clip-rule="evenodd" d="M25.8262 9.16252L36.0164 5.12891L36.5471 16.5575L33.3752 14.3696L28.1246 21.8118C26.6385 23.7401 24.7279 24.5716 22.428 24.3416C21.0304 24.2001 19.9158 23.5101 19.0843 22.8556C18.6597 22.5194 18.1998 21.9533 17.7221 21.1572L10.7871 7.99487H16.5368L23.4187 19.6888L28.9762 11.3353L25.8262 9.16252Z" fill="white"/>
</svg>
