<svg width="244" height="64" viewBox="0 0 244 64" fill="none" xmlns="http://www.w3.org/2000/svg">
  <path
    d="M72.0265 12.4838C71.5857 12.8064 71.3706 13.0429 71.3706 13.1935C71.3706 13.5376 72.2416 14.6774 72.4996 14.6881C72.79 14.6881 74.0588 13.7634 74.0588 13.5483C74.0588 13.2688 73.091 11.9999 72.876 11.9999C72.7685 11.9999 72.3921 12.215 72.0265 12.4838Z"
    fill="black" />
  <path
    d="M71.6173 16.4946C71.413 16.6237 69.9722 18.5807 69.9722 18.7205C69.9722 18.9248 70.2087 19.1506 71.1872 19.8925C71.7033 20.2796 72.2195 20.6022 72.3163 20.6022C72.7033 20.6022 74.198 18.6774 74.1442 18.2473C74.1227 18.0538 73.8324 17.7635 73.112 17.1936C72.1335 16.4301 71.8861 16.3226 71.6173 16.4946Z"
    fill="black" />
  <path
    d="M118.704 23.2795C118.736 29.1935 118.736 29.301 118.962 29.6021C119.295 30.0537 119.714 30.215 120.704 30.258L121.585 30.301V29.5913V28.8817H120.94H120.295V23.0752V17.2688H119.489H118.682L118.704 23.2795Z"
    fill="black" />
  <path
    d="M141.102 17.3979C141.069 17.4732 141.059 20.3872 141.069 23.8818L141.102 30.2259H141.908H142.715L142.747 28.6668L142.779 27.0969L143.392 26.4087L144.016 25.7313L145.338 27.8711C146.069 29.0431 146.725 30.0754 146.801 30.1506C146.887 30.2474 147.198 30.2797 147.854 30.2582L148.79 30.2259L147.005 27.5055C146.026 26.0001 145.252 24.7205 145.274 24.656C145.306 24.5807 145.983 23.8173 146.79 22.9463C147.596 22.0754 148.252 21.3334 148.252 21.3012C148.252 21.2689 147.844 21.2474 147.349 21.2474H146.446L145.328 22.4517C144.715 23.1184 143.908 24.0539 143.521 24.5162L142.822 25.3657L142.768 21.3442L142.715 17.3227L141.93 17.2904C141.371 17.2689 141.134 17.3012 141.102 17.3979Z"
    fill="black" />
  <path
    d="M158.327 17.3441C158.284 17.3763 158.252 20.3118 158.252 23.8494V30.2795H159.058H159.854L159.886 26.9032C159.919 23.6881 159.929 23.5053 160.144 23.215C160.489 22.7419 161.198 22.4301 161.94 22.4301C162.596 22.4301 162.876 22.5269 163.295 22.9032C163.757 23.3226 163.79 23.5269 163.843 26.9462L163.897 30.2258H164.704H165.51V26.9462C165.51 23.0107 165.456 22.7204 164.564 21.8279C163.929 21.1935 163.499 21.0322 162.446 21.0322C161.37 21.043 160.768 21.3871 160.058 22.4301C159.886 22.6881 159.876 22.5699 159.876 19.9785L159.865 17.2688H159.134C158.725 17.2688 158.359 17.3011 158.327 17.3441Z"
    fill="black" />
  <path
    d="M177.327 17.3871C176.8 17.6559 176.682 18.6129 177.123 19.043C177.456 19.3871 178.101 19.4086 178.51 19.086C178.746 18.9032 178.789 18.7849 178.789 18.301C178.789 17.8817 178.736 17.6881 178.585 17.5483C178.327 17.3118 177.639 17.2258 177.327 17.3871Z"
    fill="black" />
  <path
    d="M107.714 24.1506V30.2904L110.919 30.2581C114.424 30.2259 114.489 30.2151 115.36 29.527C116.295 28.7743 116.79 26.9248 116.381 25.6775C116.091 24.8173 115.241 24.1184 114.22 23.9033L114.005 23.8603L114.22 23.785C115.693 23.2474 116.177 22.5162 116.08 20.9356C116.005 19.656 115.456 18.8388 114.327 18.3227C113.811 18.0861 113.65 18.0754 110.757 18.0431L107.714 18.0001V24.1506ZM113.661 19.785C114.123 20.0969 114.273 20.4947 114.273 21.4087C114.273 23.0538 113.897 23.2797 111.241 23.2904H109.435V21.3979V19.5055L111.403 19.5485C113.112 19.5807 113.403 19.6022 113.661 19.785ZM113.951 24.9571C114.51 25.2797 114.704 25.7635 114.704 26.785C114.704 27.4517 114.65 27.7205 114.489 27.9893C114.08 28.6775 113.919 28.7205 111.564 28.7528L109.435 28.7958V26.7313V24.6668L111.51 24.7098C113.349 24.742 113.618 24.7635 113.951 24.9571Z"
    fill="black" />
  <path
    d="M125.402 21.172C124.402 21.5053 123.596 22.1935 123.134 23.0967C122.37 24.5914 122.349 26.6989 123.069 28.2365C123.736 29.6451 124.994 30.4193 126.639 30.4193C129.166 30.4193 130.747 28.6236 130.736 25.7634C130.736 23.6344 130.026 22.2473 128.553 21.4623C127.94 21.129 127.779 21.0967 126.854 21.0645C126.22 21.043 125.671 21.086 125.402 21.172ZM128.026 22.7849C128.338 23 128.564 23.258 128.747 23.6451C128.972 24.1505 129.005 24.344 129.005 25.6666C129.005 27.4408 128.865 27.9569 128.23 28.4946C127.22 29.3655 125.435 29.1828 124.736 28.1397C124.37 27.5914 124.273 27.1182 124.273 25.7526C124.273 24.2795 124.445 23.5914 124.94 23.086C125.467 22.5483 125.822 22.4193 126.757 22.4516C127.435 22.4838 127.639 22.5268 128.026 22.7849Z"
    fill="black" />
  <path
    d="M134.758 21.1829C134.08 21.3979 133.715 21.6237 133.241 22.1291C132.403 22.9893 132.016 24.1291 132.016 25.6883C132.016 28.4625 133.241 30.1291 135.51 30.4302C136.188 30.527 137.274 30.3549 137.876 30.0646C138.446 29.785 139.048 29.2044 139.327 28.6668L139.543 28.2474L139.005 27.9248C138.704 27.742 138.424 27.5915 138.381 27.5915C138.338 27.5915 138.198 27.7743 138.059 28.0001C137.553 28.828 136.543 29.2044 135.467 28.9786C134.983 28.8818 134.779 28.7743 134.435 28.4087C133.854 27.8065 133.736 27.3549 133.736 25.6452C133.736 24.3549 133.768 24.1506 133.994 23.6668C134.284 23.0431 134.499 22.828 135.059 22.5915C135.51 22.4087 136.489 22.3764 136.93 22.5485C137.306 22.6883 137.79 23.1399 137.994 23.5377L138.155 23.828L138.79 23.5055C139.145 23.3227 139.435 23.1399 139.435 23.0969C139.435 23.0431 139.295 22.785 139.123 22.5162C138.489 21.5162 137.489 21.0323 136.069 21.0431C135.586 21.0431 134.994 21.1076 134.758 21.1829Z"
    fill="black" />
  <path
    d="M151.661 21.2903C150.854 21.6237 150.402 21.9785 149.983 22.6129C149.026 24.0538 148.897 26.6237 149.682 28.3441C150.381 29.8387 152.187 30.7097 153.951 30.3871C155.101 30.1828 156.005 29.5699 156.51 28.6882L156.747 28.2581L156.144 27.9032C155.564 27.5807 155.532 27.5699 155.424 27.7635C155.37 27.871 155.112 28.1721 154.854 28.4086C153.768 29.4731 151.876 29.2043 151.22 27.8925C150.962 27.3656 150.94 27.2366 150.94 25.742C150.94 23.6559 151.144 23.1506 152.166 22.6237C152.499 22.4516 152.747 22.4194 153.37 22.4516C154.048 22.4839 154.198 22.5269 154.542 22.8065C154.854 23.0645 155.123 23.4086 155.306 23.8065C155.338 23.871 156.639 23.1721 156.639 23.0968C156.639 22.8925 155.886 21.9678 155.467 21.6667C154.854 21.2151 154.187 21.0323 153.155 21.0323C152.489 21.0323 152.134 21.0968 151.661 21.2903Z"
    fill="black" />
  <path
    d="M169.467 21.2366C169.166 21.3333 168.747 21.5592 168.532 21.7097C168.048 22.086 167.542 22.7419 167.672 22.8387C167.725 22.8817 167.94 23.0753 168.155 23.2688L168.532 23.6129L169.08 23.086C169.704 22.4839 170.381 22.2581 171.198 22.3764C172.241 22.5376 172.768 23.1936 172.768 24.3333V25.0108H171.833C168.994 25.0215 167.629 25.6774 167.295 27.1828C167.145 27.8172 167.295 28.6452 167.661 29.2688C168.295 30.3548 170.155 30.785 171.532 30.1828C172.037 29.957 172.639 29.3656 172.725 29.0215C172.801 28.7419 172.983 28.6882 172.983 28.9462C172.983 29.043 173.069 29.2903 173.166 29.4946C173.403 30 174.059 30.3011 174.844 30.2581L175.403 30.2258L175.435 29.5484L175.467 28.8817H174.919H174.381V26.0538V23.2258L174.091 22.6344C173.736 21.9462 173.102 21.4301 172.317 21.1936C171.564 20.9678 170.166 20.9893 169.467 21.2366ZM172.768 27.0538C172.768 28.0753 172.618 28.4301 172.059 28.785C171.51 29.1183 170.177 29.2043 169.618 28.9355C168.951 28.6237 168.704 27.7097 169.091 26.9462C169.36 26.3979 170.005 26.2043 171.564 26.1936H172.768V27.0538Z"
    fill="black" />
  <path
    d="M184.22 21.2366C183.811 21.4194 183.37 21.8388 182.962 22.4302C182.779 22.699 182.779 22.6883 182.779 21.9678L182.768 21.2474H181.962H181.155V25.7635V30.2797H181.962H182.757L182.79 26.9033C182.822 23.0646 182.811 23.1506 183.747 22.6668C184.134 22.4625 184.349 22.4194 184.94 22.4517C185.757 22.4947 186.123 22.699 186.478 23.3012C186.671 23.6345 186.693 23.9141 186.747 26.9463L186.8 30.2259L187.585 30.2581L188.36 30.2904V26.9141C188.36 22.8818 188.327 22.6775 187.467 21.8388C187.123 21.5055 186.736 21.2474 186.467 21.1614C185.811 20.9678 184.725 21.0001 184.22 21.2366Z"
    fill="black" />
  <path
    d="M177.069 25.7635V30.2904L177.854 30.2581L178.628 30.2259L178.661 25.7313L178.682 21.2474H177.876H177.069V25.7635Z"
    fill="black" />
  <path
    d="M72.4882 21.9785C72.2839 22.1183 70.7247 25.1828 70.7247 25.4516C70.7247 25.5914 70.7677 25.7634 70.8108 25.828C70.8538 25.8925 71.4882 26.2581 72.2301 26.6237C73.714 27.3656 73.9505 27.5269 73.9505 27.828C73.9505 27.9462 73.2409 29.0323 72.3806 30.2366C70.4129 32.9785 70.628 32.914 68.9505 31.2473C68.2409 30.5591 67.6602 30.0645 67.5419 30.0645C67.2624 30.0645 64.5957 32.7527 64.5957 33.0323C64.5957 33.3118 67.2731 35.9785 67.5527 35.9785C67.671 35.9785 68.2839 35.4624 69.0043 34.7419C69.6925 34.0645 70.3376 33.5054 70.4237 33.5054C70.7032 33.5054 70.972 33.8065 72.4882 35.8925C73.9828 37.9355 74.1333 38.2581 73.7677 38.5806C73.6602 38.6774 72.9828 39.043 72.2516 39.4086C71.3376 39.871 70.8968 40.1505 70.8108 40.3226C70.714 40.5484 70.8 40.7849 71.5312 42.1828C71.9936 43.0538 72.4129 43.8387 72.4774 43.9032C72.6817 44.172 73.1763 44.0215 74.757 43.1936C76.1333 42.4731 76.3699 42.3118 76.4022 42.0753C76.4237 41.9032 76.1763 41.2796 75.7247 40.3871C75.2624 39.4624 75.0258 38.871 75.0473 38.6882C75.0796 38.4086 75.2086 38.3548 77.6602 37.5161C79.0796 37.0323 80.2731 36.6344 80.3054 36.6344C80.3484 36.6237 80.4774 36.7097 80.6065 36.8065C80.8 36.9677 80.886 37.2903 81.1118 38.6129C81.2624 39.4946 81.4344 40.2796 81.4989 40.3548C81.5634 40.4301 81.757 40.4946 81.929 40.4946C82.4667 40.4946 85.4882 39.957 85.6387 39.828C85.8323 39.6667 85.8215 39.4946 85.4882 37.5054C85.2301 35.9032 85.1763 35.7312 84.9505 35.6237C84.7677 35.5484 84.3484 35.5699 83.2839 35.7527C81.6495 36.0108 81.3591 36.0323 81.1763 35.8495C81.0796 35.7527 81.0473 34.9462 81.0473 32.8925C81.0473 30.1613 81.0581 30.0645 81.2731 29.957C81.4344 29.8602 81.8323 29.8925 82.886 30.0538C84.5312 30.3226 84.8538 30.3333 85.0581 30.129C85.1441 30.043 85.3054 29.3011 85.4452 28.3333C85.5742 27.4194 85.7032 26.6022 85.7355 26.5054C85.757 26.4086 85.6925 26.2258 85.5957 26.1075C85.4344 25.914 85.1011 25.828 83.5419 25.5914C81.1978 25.2366 81.3591 25.129 81.0473 27.2151C80.929 28.043 80.8 28.8065 80.7677 28.9032C80.6387 29.3118 80.2194 29.2473 77.6172 28.4301C74.4452 27.4301 74.5849 27.6237 75.5957 25.5914C75.9935 24.7957 76.3161 24.0645 76.3161 23.9462C76.3161 23.6559 76.0688 23.4839 74.4129 22.6559C72.8753 21.8925 72.7032 21.828 72.4882 21.9785Z"
    fill="black" />
  <path
    d="M92.9399 22.8816C92.6711 23.2472 92.4453 23.6343 92.4453 23.7311C92.4453 23.9677 93.7679 24.9354 94.026 24.8816C94.3163 24.8279 95.1335 23.7096 95.1012 23.3978C95.0797 23.0859 94.026 22.2257 93.6604 22.215C93.4991 22.215 93.284 22.4193 92.9399 22.8816Z"
    fill="black" />
  <path
    d="M87.7358 22.7419C87.6605 22.7849 87.4025 23.3763 87.1659 24.0537C86.8433 24.957 86.7573 25.3333 86.8326 25.4946C86.9616 25.7742 89.1982 26.5699 89.5853 26.4731C89.8003 26.4193 89.9079 26.215 90.2842 25.1613C90.5315 24.4838 90.7251 23.8817 90.7251 23.8387C90.7251 23.6344 90.2412 23.3656 89.2842 23.0215C88.1982 22.6344 87.9724 22.5914 87.7358 22.7419Z"
    fill="black" />
  <path
    d="M56.0477 29.2581C55.6391 29.4086 55.2842 29.5269 55.2735 29.5269C55.252 29.5269 55.2412 29.6667 55.2412 29.828C55.2412 30.2904 55.6606 31.4409 55.8541 31.5054C55.9509 31.5484 56.4025 31.4516 56.8756 31.2904C57.8326 30.9785 57.8434 30.957 57.5208 29.9463C57.3272 29.3011 57.1229 28.9785 56.9186 29C56.8541 29 56.467 29.1183 56.0477 29.2581Z"
    fill="black" />
  <path
    d="M60.3595 30.9785C58.8864 32 58.8864 32 59.5638 33C60.3488 34.1721 60.6176 34.4731 60.8864 34.4731C61.209 34.4731 63.166 33.1398 63.252 32.8495C63.3165 32.6774 63.1445 32.3549 62.5746 31.5269C61.6391 30.1613 61.5638 30.1398 60.3595 30.9785Z"
    fill="black" />
  <path
    d="M137.424 34.9032C137.101 35.0322 136.961 35.344 136.961 35.9139C136.961 36.301 137.015 36.43 137.241 36.6128C137.65 36.9354 138.295 36.9139 138.628 36.5698C138.961 36.2472 139.004 35.4838 138.703 35.1182C138.499 34.8602 137.8 34.7419 137.424 34.9032Z"
    fill="black" />
  <path
    d="M156.252 34.9354C156.23 35.0107 156.22 37.7096 156.23 40.9354C156.263 46.473 156.273 46.7956 156.467 47.0859C156.779 47.5483 157.241 47.7311 158.23 47.7849L159.112 47.8386V47.1182V46.4085H158.467H157.822V40.6021V34.7956H157.069C156.542 34.7956 156.295 34.8386 156.252 34.9354Z"
    fill="black" />
  <path
    d="M110.983 35.4946C109.112 35.9032 107.843 37.2365 107.316 39.3763C107.058 40.4301 107.058 42.957 107.327 43.9892C107.768 45.7097 108.65 46.9032 109.886 47.4839C112.198 48.5591 114.929 47.7957 116.144 45.7312C116.305 45.4408 116.424 45.1935 116.402 45.172C116.392 45.1613 116.08 44.9677 115.725 44.7527L115.08 44.3656L114.843 44.8279C114.295 45.914 113.284 46.4624 111.94 46.3871C110.66 46.3226 109.918 45.871 109.392 44.8064C109.015 44.0645 108.897 43.3226 108.897 41.6774C108.897 39.3978 109.187 38.4516 110.123 37.6236C110.703 37.1075 111.209 36.9462 112.187 36.9462C113.381 36.9462 114.144 37.3978 114.725 38.4193L114.983 38.871L115.65 38.4946C116.015 38.2903 116.316 38.0645 116.316 38.0107C116.316 37.8172 115.564 36.7419 115.219 36.4624C114.639 35.9677 113.983 35.6559 113.241 35.4946C112.349 35.3011 111.854 35.3011 110.983 35.4946Z"
    fill="black" />
  <path
    d="M141.886 37.3225C141.843 38.6451 141.833 38.6666 140.919 38.6666H140.295V39.3655V40.0644H140.983H141.682L141.714 43.387C141.747 46.5483 141.757 46.7311 141.972 47.0107C142.435 47.6451 142.671 47.7311 143.951 47.7849L145.134 47.8386V47.1182V46.4085H144.273H143.413V43.2365V40.0644H144.381H145.359L145.327 39.387L145.295 38.7203L144.359 38.6881L143.424 38.6558L143.392 37.4515L143.359 36.2472L142.639 36.215L141.929 36.1827L141.886 37.3225Z"
    fill="black" />
  <path
    d="M120.51 38.5699C119.736 38.656 118.94 39.0108 118.435 39.5054C117.746 40.1613 117.746 40.2366 118.273 40.7097L118.736 41.1183L119.273 40.6022C119.897 40.0216 120.628 39.7742 121.424 39.8925C122.445 40.0538 122.983 40.7312 122.983 41.8495V42.5054L121.51 42.5699C120.671 42.6022 119.789 42.699 119.488 42.7958C118.112 43.2151 117.456 44.0216 117.456 45.2904C117.456 46.5162 118.123 47.4409 119.273 47.8173C119.832 47.9893 120.983 47.9893 121.521 47.8173C122.026 47.6452 122.693 47.0538 122.875 46.6237C123.047 46.2044 123.155 46.2151 123.241 46.6667C123.381 47.3871 124.187 47.8603 125.166 47.785L125.617 47.7527L125.65 47.0861L125.682 46.4194L125.166 46.3871L124.65 46.3549L124.596 43.4517C124.542 40.7205 124.531 40.5269 124.306 40.1076C123.693 38.9678 122.241 38.3764 120.51 38.5699ZM122.983 44.6022C122.983 45.656 122.8 46.0538 122.166 46.3549C121.574 46.6452 120.327 46.699 119.832 46.4624C119.187 46.1613 118.908 45.1828 119.273 44.4732C119.574 43.8925 120.069 43.742 121.779 43.7312L122.983 43.7205V44.6022Z"
    fill="black" />
  <path
    d="M131.037 38.5699C130.134 38.6989 129.284 39.3011 129.037 39.9785C128.972 40.1613 128.94 40.0323 128.897 39.4731L128.843 38.7204H128.037H127.231L127.198 44.9785L127.177 51.2473H128.037H128.897V48.7419C128.897 46.4194 128.908 46.2688 129.069 46.5699C129.532 47.4624 130.37 47.9462 131.478 47.9462C132.768 47.9462 133.661 47.4946 134.338 46.5054C134.919 45.6344 135.08 44.9247 135.08 43.2366C135.08 41.957 135.048 41.6237 134.833 41.0323C134.231 39.2796 132.747 38.3226 131.037 38.5699ZM131.994 40.129C132.575 40.3656 133.058 40.8925 133.263 41.4839C133.392 41.8925 133.424 42.3333 133.392 43.4946C133.36 44.9247 133.349 44.9893 133.037 45.4946C132.596 46.2151 132.005 46.5161 131.058 46.5161C130.188 46.5161 129.499 46.2151 129.144 45.6667C128.908 45.3226 128.897 45.2043 128.897 43.2688C128.897 41.129 128.94 40.8817 129.413 40.4624C129.951 39.9785 131.241 39.8065 131.994 40.129Z"
    fill="black" />
  <path
    d="M148.693 38.7312C148.435 38.828 148.037 39.0216 147.811 39.1721C147.403 39.4409 146.854 40.0646 146.854 40.2689C146.854 40.3226 147.059 40.5484 147.306 40.7527L147.758 41.1398L148.069 40.7635C148.564 40.1613 149.145 39.9033 150.026 39.914C151.349 39.914 151.897 40.4409 151.994 41.7958L152.048 42.5377H151.069C148.94 42.5377 147.661 42.8925 147.005 43.6452C146.553 44.1829 146.381 44.7635 146.457 45.5592C146.543 46.6022 147.026 47.2904 147.93 47.6775C149.424 48.3226 151.22 47.871 151.833 46.6882C151.994 46.3979 152.069 46.3226 152.134 46.4302C152.188 46.5054 152.231 46.6345 152.231 46.7205C152.231 46.8065 152.349 47.0216 152.489 47.2151C152.779 47.6022 153.349 47.8065 154.102 47.8065H154.596V47.1076V46.4087H154.123H153.639L153.607 43.5269L153.575 40.656L153.263 40.0861C152.887 39.4194 152.284 38.9355 151.543 38.7205C150.844 38.5162 149.306 38.5162 148.693 38.7312ZM152.016 44.57C152.016 45.2581 151.973 45.4732 151.768 45.7743C151.414 46.3119 150.725 46.6237 149.897 46.6237C148.639 46.6237 148.145 46.1936 148.145 45.1291C148.145 44.0753 148.779 43.7312 150.758 43.7205H152.016V44.57Z"
    fill="black" />
  <path
    d="M137.123 38.8064C137.09 38.8709 137.08 40.9247 137.09 43.344L137.123 47.7526L137.908 47.7849L138.682 47.8171V43.2365V38.6666H137.929C137.424 38.6666 137.155 38.7096 137.123 38.8064Z"
    fill="black" />
  <path
    d="M86.5964 40.8386C86.4673 41.0214 86.4243 41.3763 86.4243 42.344C86.4243 43.9569 86.4028 43.9354 88.1663 43.9354C89.7792 43.9354 89.7577 43.9569 89.7577 42.1935C89.7577 40.5806 89.7792 40.6021 88.0157 40.6021C86.8437 40.6021 86.7469 40.6128 86.5964 40.8386Z"
    fill="black" />
  <path
    d="M70.4243 45.5806C69.7038 45.8064 69.2737 46 69.1985 46.129C69.0372 46.4193 69.7253 48.7419 70.0372 48.9462C70.2307 49.0752 70.392 49.0537 71.3813 48.7634C72.6178 48.3978 72.9834 48.215 72.9834 47.9569C72.9834 47.6989 72.3275 45.5161 72.1985 45.3548C72.0372 45.1612 71.6393 45.2043 70.4243 45.5806Z"
    fill="black" />
  <path
    d="M89.8973 45.6775C89.8327 45.7528 89.6822 46.1506 89.5424 46.5485C89.2521 47.4302 89.2951 47.4947 90.2413 47.8065C91.2628 48.1506 91.3596 48.1076 91.6607 47.2151C92.0155 46.1721 91.9833 46.0753 91.2091 45.7958C90.4671 45.527 90.0478 45.4947 89.8973 45.6775Z"
    fill="black" />
  <path
    d="M66.5318 50.0538C66.4781 50.172 66.4243 50.5591 66.4243 50.9247C66.4243 51.9462 66.4888 52 67.5318 52C68.0802 52 68.4781 51.9462 68.5533 51.871C68.6286 51.7957 68.6824 51.4194 68.6824 50.9247C68.6824 50.4301 68.6286 50.0538 68.5533 49.9785C68.4781 49.9032 68.0802 49.8495 67.5318 49.8495C66.7684 49.8495 66.6286 49.8817 66.5318 50.0538Z"
    fill="black" />
</svg>