<svg width="107" height="30" viewBox="0 0 107 30" fill="none" xmlns="http://www.w3.org/2000/svg">
<path d="M29.3712 13.3356C29.2117 13.3356 29.0591 13.3287 28.9066 13.3287H25.7377V0.832187C25.7516 0.0894085 24.7947 0 24.2261 0H23.914C23.3454 0 22.3955 0.0894085 22.4024 0.832187C22.4024 0.997249 22.4024 1.14168 22.4024 1.30674V13.3287H19.809V0.832187C19.8229 0.0894085 18.8729 0 18.2974 0H17.9923C17.4168 0 16.4668 0.0894085 16.4806 0.832187C16.4806 0.997249 16.4737 1.14168 16.4737 1.30674V13.3287H13.8804V0.832187C13.8873 0.0894085 12.9373 0 12.3618 0H12.0567C11.4811 0 10.5381 0.0894085 10.545 0.832187C10.545 0.997249 10.545 1.14168 10.545 1.30674V13.3287H7.95167V0.832187C7.95861 0.0894085 7.00863 0 6.4331 0H6.128C5.55247 0 4.60249 0.0894085 4.61636 0.832187C4.61636 0.997249 4.60943 1.14168 4.60943 1.30674V13.3287H1.41973C1.41973 13.3287 1.38506 13.3287 1.35039 13.3356H0.955142C0.206256 13.3219 0.123047 14.271 0.123047 14.8418V15.1513C0.123047 15.2063 0.123047 15.2545 0.129981 15.3164C0.199322 16.6644 0.705513 16.6575 0.948208 16.6575C1.07302 16.6575 1.20477 16.6575 1.35732 16.6575H4.58862V28.6864C4.58862 28.6864 4.58862 28.7208 4.59556 28.762V29.1541C4.58862 29.9037 5.53166 29.9862 6.1072 29.9862H6.4123C6.46777 29.9862 6.51631 29.9862 6.58565 29.9794C7.93781 29.9037 7.93087 29.3948 7.93087 29.1541C7.93087 29.0303 7.93087 28.8973 7.93087 28.7552V16.6644H10.5242V28.6933C10.5242 28.6933 10.5242 28.7276 10.5242 28.7689V29.1609C10.5173 29.9106 11.4603 29.9931 12.0359 29.9931H12.3479C12.4034 29.9931 12.445 29.9931 12.5143 29.9794C13.8734 29.9106 13.8595 29.4016 13.8595 29.1609C13.8595 29.0371 13.8595 28.9019 13.8595 28.7552V16.6644H16.4529V28.7001C16.4529 28.7001 16.4529 28.7345 16.4598 28.7689V29.1678C16.446 29.9175 17.396 29.9931 17.9715 29.9931H18.2766C18.3321 29.9931 18.3737 29.9931 18.443 29.9862C19.8021 29.9175 19.7882 29.4085 19.7882 29.1678C19.7882 29.044 19.7882 28.9088 19.7882 28.762V16.6713H22.3816V28.7001C22.3816 28.7001 22.3816 28.7345 22.3816 28.7758V29.1747C22.3677 29.9243 23.3246 30 23.8932 30H24.1983C24.2538 30 24.2954 30 24.3717 29.9931C25.7238 29.9243 25.7169 29.4085 25.7169 29.1747C25.7169 29.0463 25.7169 28.911 25.7169 28.7689V16.6781H29.3573C30.1062 16.685 30.1894 15.7359 30.1894 15.1651V14.8556C30.1894 14.2847 30.1062 13.3356 29.3573 13.3494L29.3712 13.3356Z" fill="#F5333F"/>
<path fill-rule="evenodd" clip-rule="evenodd" d="M83.2295 14.9316C83.2295 23.5423 79.4989 27.7514 71.8367 27.7926H71.4622C63.8139 27.7376 60.1042 23.728 60.1042 14.9316C60.1042 6.12827 63.6683 2.20117 71.6703 2.20117C79.6653 2.20117 83.2295 6.31396 83.2295 14.9316ZM78.0705 14.8903C78.0705 8.38412 76.3577 5.97009 71.7327 5.97009H71.5801C66.962 5.97009 65.2493 8.31534 65.2493 14.8903C65.2493 21.4584 67.0383 24.0169 71.6287 24.0169H71.6911C76.2815 24.0169 78.0705 21.3896 78.0705 14.8903ZM36.8124 17.9921V3.63171C36.8055 3.42538 36.8055 3.15716 37.0413 2.92332C37.4088 2.55193 38.227 2.36623 39.4682 2.36623C40.7163 2.36623 41.5276 2.55193 41.8951 2.92332C42.1309 3.16403 42.124 3.42538 42.124 3.63171V18.6936C42.124 21.1558 42.124 21.6647 43.2334 22.5726C44.2597 23.4116 45.8129 23.5148 47.0472 23.5148C48.2745 23.5148 49.8278 23.4116 50.854 22.5726C51.9704 21.6578 51.9704 21.142 51.9704 18.6386V3.63859C51.9635 3.42538 51.9566 3.16403 52.1923 2.9302C52.5598 2.55881 53.3642 2.36623 54.6193 2.36623C55.8743 2.36623 56.6926 2.55881 57.0601 2.9302C57.2889 3.16403 57.2889 3.42538 57.282 3.63171V17.9852C57.282 21.988 56.8867 24.0719 54.5499 25.8463C52.9481 27.0911 50.7292 27.6207 47.1512 27.6207H46.9224C43.3721 27.6207 41.1601 27.0911 39.5445 25.8463C37.2077 24.0719 36.8124 21.988 36.8124 17.9921ZM103.214 3.85179C104.933 5.11727 105.218 7.45564 105.238 8.74175C105.266 11.479 104.496 12.8683 102.395 13.8724L101.952 14.0856L102.416 14.2507C103.117 14.4914 103.845 14.7665 104.469 15.2273C105.89 16.2452 106.681 18.0953 106.681 20.4268C106.681 22.1943 106.278 24.6083 104.372 26.0801C102.666 27.3662 100.62 27.4556 97.6871 27.4556H86.8976C86.433 27.4556 86.0516 27.0774 86.0516 26.6097V3.37724C86.0516 2.91644 86.433 2.5313 86.8976 2.5313H97.1879C100.315 2.5313 101.889 2.88205 103.214 3.85867V3.85179ZM91.2869 12.8408H96.6401C99.1641 12.8408 100.246 11.8367 100.246 9.49141C100.246 7.52442 100.01 6.01823 97.0353 6.01823H91.2869V12.8408ZM101.348 20.1723C101.348 17.8339 100.676 16.3759 97.3265 16.3759H91.2869V23.8999H96.9174C100.19 23.8999 101.348 23.336 101.348 20.1723Z" fill="#005CB9"/>
</svg>
