<svg width="178" height="20" viewBox="0 0 178 20" fill="none" xmlns="http://www.w3.org/2000/svg">
<path d="M13.6755 19.9996L5.2703 4.55642V19.9996H0.662109V0.00195312H7.88087L15.646 14.1435L23.4126 0.00195312H30.5345V19.9996H25.8944V4.55642L17.515 19.9996H13.6755Z" fill="black"/>
<path d="M45.1269 19.9996H40.3887V0.00195312H45.1269V19.9996Z" fill="black"/>
<path d="M54.3761 10.6738H68.6517C71.4227 10.6738 73.0027 9.46992 73.0027 7.38749C73.0027 5.27297 71.4227 4.06902 68.6517 4.06902H54.3761V0.00195312H68.9044C74.1573 0.00195312 77.7032 2.53965 77.7032 7.35536C77.7032 10.9335 75.6404 13.3139 72.3534 14.2199L78.2556 19.9996H72.8074L67.3592 14.6752H59.1098V19.9996H54.373L54.3761 10.6738Z" fill="black"/>
<path d="M97.6901 4.71945L88.4419 19.9978H83.3828L95.0478 0H100.364L112.029 19.9978H106.905L97.6901 4.71945Z" fill="black"/>
<path d="M142.384 19.9996H138.195L123.081 6.08577V19.9996H118.506V0.00195312H123.34L137.776 13.1413V0.00195312H142.384V19.9996Z" fill="black"/>
<path d="M163.4 4.71945L154.151 19.9978H149.092L160.757 0H166.073L177.74 19.9978H172.616L163.4 4.71945Z" fill="black"/>
</svg>
