<svg width="24" height="24" viewBox="0 0 24 24" fill="none" xmlns="http://www.w3.org/2000/svg">
<path d="M12 24C18.6274 24 24 18.6274 24 12C24 5.37258 18.6274 0 12 0C5.37259 0 0 5.37258 0 12C0 18.6274 5.37259 24 12 24Z" fill="#D9D9D9"/>
<path d="M6.19851 9.98758H8.68901V17.9995H6.19851V9.98758ZM7.44193 6C8.23648 6 8.88228 6.64693 8.88228 7.44288C8.88228 8.23882 8.23648 8.88733 7.44245 8.88733C7.06023 8.88649 6.6939 8.73406 6.42359 8.46337C6.15327 8.19268 6.00097 7.82576 6 7.44288C6 7.25326 6.03731 7.06551 6.10979 6.89035C6.18227 6.71519 6.28851 6.55606 6.42243 6.42205C6.55634 6.28805 6.71531 6.1818 6.89024 6.10938C7.06518 6.03696 7.25264 5.99979 7.44193 6ZM10.2441 9.98758H12.6283V11.0826H12.6613C12.9933 10.453 13.8041 9.78873 15.0182 9.78873C17.5354 9.78873 18 11.4483 18 13.6053V18H15.5158V14.1027C15.5158 13.174 15.499 11.9777 14.2242 11.9777C12.9305 11.9777 12.7314 12.9903 12.7314 14.0345V17.9979H10.2477V9.98601L10.2441 9.98758Z" fill="white"/>
</svg>
