<svg width="36" height="36" viewBox="0 0 36 36" fill="none" xmlns="http://www.w3.org/2000/svg">
<path d="M35.4612 22.3544C33.0568 31.9973 23.2891 37.8658 13.644 35.4611C4.00288 33.057 -1.86631 23.2898 0.539191 13.6476C2.94245 4.0036 12.7102 -1.86546 22.3525 0.538643C31.997 2.94274 37.8656 12.711 35.4612 22.3544Z" fill="#202020"/>
<path fill-rule="evenodd" clip-rule="evenodd" d="M21.0329 8.27048C21.1937 7.67025 21.8107 7.31404 22.4109 7.47488C23.0111 7.63571 23.3673 8.25268 23.2065 8.85291L22.7299 10.6316L23.0256 10.7108C25.1537 11.281 26.4167 13.4685 25.8464 15.5966L25.82 15.6954C25.3753 17.3548 23.9214 18.4744 22.2956 18.5705L22.2952 18.5719L22.2694 18.5721L22.2673 18.5721L22.2596 18.5725C22.1411 18.5821 22.1189 18.7525 22.237 18.7893L22.2369 18.7897C24.2853 19.6006 25.4452 21.8365 24.8612 24.016C24.2325 26.3624 21.8207 27.7548 19.4743 27.1261L18.7838 26.9411L18.3073 28.7192C18.1465 29.3195 17.5295 29.6757 16.9293 29.5148C16.3291 29.354 15.9728 28.737 16.1337 28.1368L16.6101 26.3587L14.6337 25.8291L14.1572 27.6072C13.9964 28.2074 13.3794 28.5636 12.7792 28.4028C12.179 28.2419 11.8228 27.625 11.9836 27.0247L12.46 25.2467L10.4833 24.717L14.1898 10.8844L13.2031 10.62C12.5483 10.4445 12.1597 9.77148 12.3352 9.11667C12.5106 8.46187 13.1837 8.07328 13.8385 8.24873L14.8265 8.51347L14.8264 8.51382L16.4062 8.93714L16.8828 7.15857C17.0436 6.55833 17.6606 6.20212 18.2608 6.36296C18.8611 6.52379 19.2173 7.14076 19.0564 7.74099L18.5799 9.51956L20.5563 10.0491L21.0329 8.27048ZM9.39641 24.4258C8.74161 24.2503 8.35302 23.5773 8.52847 22.9224C8.70393 22.2676 9.37698 21.8791 10.0318 22.0545L11.1186 22.3457L10.4832 24.717L9.39641 24.4258ZM15.6966 15.8656C15.4899 15.094 15.9477 14.301 16.7193 14.0942L20.7664 13.0098C21.538 12.8031 22.331 13.261 22.5378 14.0325C22.7445 14.8041 22.2866 15.5971 21.5151 15.8039L17.468 16.8883C16.6964 17.095 15.9033 16.6372 15.6966 15.8656ZM13.8456 22.41C13.6388 21.6385 14.0967 20.8454 14.8683 20.6387L18.9154 19.5542C19.687 19.3475 20.48 19.8054 20.6868 20.5769C20.8935 21.3485 20.4356 22.1416 19.6641 22.3483L15.6169 23.4327C14.8454 23.6395 14.0523 23.1816 13.8456 22.41Z" fill="white"/>
</svg>
