<svg width="24" height="24" viewBox="0 0 24 24" fill="none" xmlns="http://www.w3.org/2000/svg">
<path d="M12 24C18.6274 24 24 18.6274 24 12C24 5.37258 18.6274 0 12 0C5.37258 0 0 5.37258 0 12C0 18.6274 5.37258 24 12 24Z" fill="#D9D9D9"/>
<path d="M4.99792 11.1627L13.0789 7.83374C13.8769 7.48674 16.5819 6.37674 16.5819 6.37674C16.5819 6.37674 17.8309 5.89074 17.7259 7.07074C17.6909 7.55674 17.4139 9.25574 17.1359 11.0937L16.2689 16.5387C16.2689 16.5387 16.1999 17.3367 15.6089 17.4747C15.0179 17.6127 14.0479 16.9897 13.8749 16.8507C13.7359 16.7467 11.2739 15.1857 10.3719 14.4227C10.1289 14.2147 9.85192 13.7987 10.4069 13.3127C11.6559 12.1677 13.1469 10.7457 14.0489 9.84474C14.4649 9.42874 14.8809 8.45774 13.1469 9.63674L8.25692 12.9317C8.25692 12.9317 7.70191 13.2787 6.66191 12.9667C5.62191 12.6547 4.40792 12.2387 4.40792 12.2387C4.40792 12.2387 3.57592 11.7187 4.99792 11.1637V11.1627Z" fill="white"/>
</svg>
