<svg width="24" height="24" viewBox="0 0 24 24" fill="none" xmlns="http://www.w3.org/2000/svg">
  <path
    d="M12 24C18.6274 24 24 18.6274 24 12C24 5.37258 18.6274 0 12 0C5.37258 0 0 5.37258 0 12C0 18.6274 5.37258 24 12 24Z"
    fill="#D9D9D9" />
  <path
    d="M19.4746 7.98899C18.9708 8.2107 18.4368 8.35789 17.8905 8.42393C18.467 8.07956 18.8972 7.53612 19.1019 6.89645C18.5613 7.21817 17.9688 7.44461 17.3518 7.56537C16.3083 6.45491 14.5629 6.40113 13.4524 7.44366C12.8986 7.96446 12.5835 8.69093 12.5825 9.45137C12.5825 9.66365 12.6061 9.87404 12.6533 10.0807C10.438 9.97216 8.37183 8.93152 6.96701 7.2144C6.23959 8.47016 6.61037 10.075 7.81424 10.8845C7.37553 10.8703 6.94719 10.7524 6.5632 10.5401V10.5769C6.56414 11.8893 7.48969 13.0196 8.77658 13.279C8.36995 13.3885 7.94444 13.4045 7.5312 13.3271C7.89161 14.4508 8.92659 15.2207 10.1059 15.2414C9.12944 16.0057 7.92369 16.4189 6.68397 16.4161C6.46414 16.4161 6.24431 16.4029 6.02637 16.3764C7.28873 17.1897 8.7596 17.6199 10.2616 17.6162C15.3441 17.6162 18.1084 13.4149 18.1084 9.77215V9.41363C18.6453 9.02303 19.1076 8.53997 19.4746 7.98804V7.98899Z"
    fill="white" />
</svg>